<?xml version="1.0" encoding="utf-8"?>
<!-- Generator: Adobe Illustrator 16.0.0, SVG Export Plug-In . SVG Version: 6.00 Build 0)  -->
<!DOCTYPE svg PUBLIC "-//W3C//DTD SVG 1.1//EN" "http://www.w3.org/Graphics/SVG/1.1/DTD/svg11.dtd">
<svg version="1.1" id="Слой_1" xmlns="http://www.w3.org/2000/svg" xmlns:xlink="http://www.w3.org/1999/xlink" x="0px" y="0px"
	 width="413.333px" height="332.715px" viewBox="0 0 413.333 332.715" enable-background="new 0 0 413.333 332.715"
	 xml:space="preserve">
<g>
	<g>
		<g>
			<g>
				<g>
					<polygon fill="#D6D6D6" points="322.901,169.165 290.923,151.279 301.915,150.555 					"/>
				</g>
			</g>
		</g>
		<g>
			<g>
				<g>
					<polygon fill="#E8E8E8" points="322.901,169.165 313.062,153.336 304.804,153.117 					"/>
				</g>
			</g>
		</g>
		<g>
			<g>
				<g>
					<polygon fill="#C2C2C2" points="298.276,155.394 297.636,159.423 322.901,169.165 					"/>
				</g>
			</g>
		</g>
	</g>
	<g>
		<path fill="#FFCA55" d="M317.512,67.5c-0.153-30.914-29.816-55.828-66.256-55.648c-36.439,0.179-65.855,25.386-65.703,56.299
			c0.041,8.139,2.127,15.86,5.842,22.819c0.021,0.041,20.345,39.288,23.38,76.6c0.085,17.453,16.834,31.519,37.405,31.416
			c20.571-0.1,37.18-14.331,37.093-31.783c2.669-37.359,22.621-76.829,22.621-76.829l0,0C315.54,83.379,317.551,75.637,317.512,67.5
			z"/>
		
			<rect x="228.358" y="84.396" transform="matrix(0.992 -0.1261 0.1261 0.992 -14.1752 29.9748)" fill="#FFFFFF" width="2.446" height="85.025"/>
		
			<rect x="272.855" y="84.171" transform="matrix(-0.9933 -0.1156 0.1156 -0.9933 531.6711 284.2109)" fill="#FFFFFF" width="2.449" height="85.025"/>
		<g>
			<polygon fill="#FFFFFF" points="269.652,97.618 260.431,88.489 251.454,97.556 242.539,88.732 233.866,97.493 224.201,87.925 
				225.385,86.729 233.854,95.114 242.526,86.353 251.44,95.177 260.418,86.109 269.64,95.238 278.101,86.691 279.296,87.875 			"/>
		</g>
		<path fill="#5D67BD" d="M273.338,218.821l-42.236,0.208c-4.688,0.023-8.507-3.758-8.53-8.444l-0.082-16.621l59.212-0.293
			l0.08,16.621C281.805,214.98,278.024,218.797,273.338,218.821z"/>
		<path fill="#7784F2" d="M278.546,208.456l-52.755,0.26c-7.042,0.036-12.777-5.645-12.813-12.686l-0.137-27.67l78.255-0.388
			l0.136,27.672C291.268,202.686,285.586,208.421,278.546,208.456z"/>
	</g>
	<path fill="#FFD578" d="M296.757,95.873c0,0-1.163-64.7-46.68-73.804c0,0,31.571-1.162,45.129,21.692
		C308.765,66.617,296.757,95.873,296.757,95.873z"/>
	<path fill="#E0E0E0" d="M168.212,222.842h-41.033c-4.865,0-8.81-3.944-8.81-8.81v-71.446c0-4.865,3.944-8.811,8.81-8.811h41.033
		c4.867,0,8.811,3.945,8.811,8.811v71.446C177.022,218.897,173.079,222.842,168.212,222.842z"/>
	<g>
		<g>
			<path fill="#9DA6F2" d="M170.165,147.022c-1.437-4.019-5.278-6.487-9.327-6.366c-0.98,0.03-1.972,0.211-2.946,0.56
				c-2.948,1.054-5.063,3.403-5.932,6.178c-0.602,1.924-0.606,4.051,0.125,6.095c0.073,0.205,0.152,0.404,0.236,0.6
				c0.384,0.885,0.889,1.685,1.487,2.39c2.513,2.953,6.682,4.203,10.549,2.819C169.351,157.511,171.951,152.016,170.165,147.022z
				 M163.55,157.034c-2.9,1.037-6.025,0.102-7.909-2.114c-0.449-0.527-0.828-1.128-1.116-1.792
				c-0.063-0.146-0.123-0.297-0.177-0.449c-0.548-1.532-0.545-3.128-0.094-4.569c0.651-2.081,2.236-3.842,4.447-4.633
				c0.73-0.26,1.474-0.396,2.209-0.419c3.035-0.091,5.916,1.76,6.993,4.773C169.242,151.575,167.293,155.695,163.55,157.034z"/>
		</g>
		<g>
			<path fill="#2D3582" d="M154.254,148.11l-2.294-0.717c0.869-2.774,2.984-5.124,5.932-6.178c0.974-0.349,1.966-0.53,2.946-0.56
				l0.072,2.402c-0.735,0.023-1.479,0.16-2.209,0.419C156.49,144.269,154.905,146.029,154.254,148.11z"/>
		</g>
		<g>
			<path fill="#4852A8" d="M154.525,153.128l-2.203,0.959c-0.084-0.196-0.164-0.395-0.236-0.6c-0.732-2.043-0.728-4.17-0.125-6.095
				l2.294,0.717c-0.452,1.441-0.455,3.037,0.094,4.569C154.402,152.832,154.461,152.982,154.525,153.128z"/>
		</g>
		<g>
			<path fill="#6F79C9" d="M153.809,156.478c-0.599-0.705-1.103-1.504-1.487-2.39l2.203-0.959c0.288,0.664,0.667,1.265,1.116,1.792
				L153.809,156.478z"/>
		</g>
	</g>
	<g>
		<rect x="155.865" y="202.735" fill="#9DA6F2" width="5.175" height="16.969"/>
	</g>
	<g>
		<rect x="148.171" y="207.493" fill="#9DA6F2" width="5.176" height="12.211"/>
	</g>
	<g>
		<rect x="163.329" y="194.87" fill="#9DA6F2" width="5.175" height="24.834"/>
	</g>
	<g>
		<polygon fill="#9DA6F2" points="126.205,200.985 125.755,200.641 134.188,189.667 144.597,190.231 152.445,177.732 
			160.901,176.86 165.982,166.811 166.489,167.066 161.268,177.392 152.779,178.269 144.899,190.816 134.456,190.25 		"/>
	</g>
	<path fill="#9DA6F2" d="M142.156,146.42h-14.718c-0.93,0-1.683-0.753-1.683-1.683l0,0c0-0.929,0.753-1.682,1.683-1.682h14.718
		c0.929,0,1.681,0.753,1.681,1.682l0,0C143.837,145.667,143.084,146.42,142.156,146.42z"/>
	<path fill="#9DA6F2" d="M142.156,152.291h-14.718c-0.93,0-1.683-0.753-1.683-1.683l0,0c0-0.929,0.753-1.683,1.683-1.683h14.718
		c0.929,0,1.681,0.754,1.681,1.683l0,0C143.837,151.537,143.084,152.291,142.156,152.291z"/>
	<path fill="#9DA6F2" d="M142.156,158.161h-14.718c-0.93,0-1.683-0.753-1.683-1.683l0,0c0-0.929,0.753-1.683,1.683-1.683h14.718
		c0.929,0,1.681,0.754,1.681,1.683l0,0C143.837,157.407,143.084,158.161,142.156,158.161z"/>
	<g>
		<g>
			<rect x="303.718" y="238.831" fill="#E2D2CA" width="26.682" height="1.584"/>
		</g>
		<g>
			<rect x="324.485" y="244.538" fill="#706865" width="2.337" height="72.025"/>
		</g>
		<g>
			<rect x="289.349" y="238.383" fill="#CCBDB7" width="18.546" height="2.262"/>
		</g>
		<g>
			<rect x="295.11" y="219.086" fill="#CCBDB7" width="7.022" height="21.329"/>
		</g>
		<g>
			<rect x="237.216" y="240.442" fill="#B59074" width="102.753" height="4.096"/>
		</g>
		<g>
			<path fill="#323657" d="M359.69,215.654c0,0,1.124,15.761-1.956,17.646c-1.929,1.183-9.621,5.167-9.393,5.916
				c0.227,0.746,4.342,6.647,4.342,6.647s14.775-9.729,15.251-12.795c0.466-2.995-0.727-23.075-2.759-24.001
				c-1.52-0.691-2.323-0.119-4.239,1.305C358.246,212.37,359.69,215.654,359.69,215.654z"/>
		</g>
		<g>
			<g>
				<g>
					<path fill="#EAD8CF" d="M332.765,220.154l-1.304-0.482c0,0,1.624-3.812,2.334-3.719c0.816,0.107,1.835,0.376,1.835,0.376
						L332.765,220.154z"/>
				</g>
			</g>
		</g>
		<g>
			<g>
				<g>
					<path fill="#DA9B5B" d="M332.467,220.811c0.167-0.123,2.768-5.112,2.768-5.112l5.558,0.755l-3.002,5.91L332.467,220.811z"/>
				</g>
			</g>
		</g>
		<g>
			<g>
				<g>
					<path fill="#424773" d="M341.513,306.729c0,0,0.46,3.189,0.518,3.669c0.057,0.478,5.109-0.282,5.109-0.282l0.41-3.797
						C347.55,306.319,342.145,306.279,341.513,306.729z"/>
				</g>
			</g>
		</g>
		<g>
			<g>
				<g>
					<path fill="#292C47" d="M341.977,309.992c0,0-1.603,1.922-3.15,2.759c-1.549,0.838-3.98,1.169-4.897,2.036
						c-0.661,0.625-2.406,3.32,4.024,3.266c6.43-0.055,9.532,0.381,10.221-0.652s-0.997-7.625-0.997-7.625
						S345.654,310.325,341.977,309.992z"/>
				</g>
			</g>
		</g>
		<g>
			<g>
				<g>
					<path fill="#424773" d="M309.138,306.759c0,0,0.459,3.19,0.517,3.669s5.11-0.283,5.11-0.283l0.41-3.795
						C315.175,306.35,309.77,306.311,309.138,306.759z"/>
				</g>
			</g>
		</g>
		<g>
			<g>
				<g>
					<path fill="#292C47" d="M309.601,310.022c0,0-1.602,1.922-3.149,2.759c-1.549,0.838-7.247,1.526-8.163,2.393
						c-0.66,0.626-1.76,3.146,7.289,2.91c6.429-0.168,9.532,0.381,10.222-0.653c0.689-1.033-0.997-7.624-0.997-7.624
						S313.366,310.392,309.601,310.022z"/>
				</g>
			</g>
		</g>
		<g>
			<g>
				<g>
					<path fill="#292C47" d="M357.81,251.646c0,0-18.369,3.108-22.519,3.76c-4.15,0.65-26.648,6.25-29.463,7.955
						c-2.238,1.359,1.175,33.973,1.973,46.414h8.862l0.642-37.323c10.636,0.266,18.223-2.487,25.967-1.312s14.199,2.849,19.12-3.754
						C362.392,267.387,362.573,253.088,357.81,251.646z"/>
				</g>
			</g>
		</g>
		<g>
			<g>
				<g>
					<path fill="#292C47" d="M339.702,309.807l8.639-0.534l0.841-36.82c4.577,0.114,6.146-0.177,9.851-0.626l6.974-16.207
						c-6.11,1.222-25.689,6.161-28.302,7.742C335.465,264.721,338.906,297.363,339.702,309.807z"/>
				</g>
			</g>
		</g>
		<g>
			<g>
				<g>
					<path fill="#EEA886" d="M349.354,182.783c0,0-6.734-1.862-9.305,3.366c-2.569,5.229-1.405,15.14,1.989,16.071
						c3.395,0.934,8.275-0.141,9.686-3.395c1.408-3.255,2.533-7.879,2.194-10.872C353.584,184.96,351.143,183.498,349.354,182.783z"
						/>
				</g>
			</g>
		</g>
		<g>
			<g>
				<g>
					<path fill="#EEA886" d="M343.801,201.179c0,0,0.073,3.976-0.365,4.822c-0.439,0.848,9.378,0.636,9.378,0.636
						s-1.547-4.775-0.67-8.843C353.013,193.768,343.801,201.179,343.801,201.179z"/>
				</g>
			</g>
		</g>
		<g>
			<g>
				<g>
					<path fill="#3A3F47" d="M352.674,196.288c0,0-0.526,1.067-3.066,0.896c-2.542-0.172-5.893-3.236-6.971-3.512
						c-1.08-0.273-1.143-0.888-1.143-0.888l-0.571,1.016l-1.105,0.167c0,0,0.751-3.07-0.885-4.154
						c-1.638-1.08,0.736-9.793,9.021-7.691c0,0,6.323,1.158,6.408,4.688C354.446,190.34,353.899,194.419,352.674,196.288z"/>
				</g>
			</g>
		</g>
		<g>
			<g>
				<g>
					<path fill="#E2D2CA" d="M342.919,205.899c0,0,0.028-1.618,0.761-1.774c0.735-0.156,7.717-1.117,8.618-0.762l0.386,2.14
						C352.684,205.503,350.948,206.57,342.919,205.899z"/>
				</g>
			</g>
		</g>
		<g>
			<g>
				<g>
					<path fill="#EEA886" d="M340.9,192.06c0.186-1.326,1.695-2.853,2.561-0.783c0.864,2.066-0.584,5.077-1.554,4.915
						C340.938,196.031,340.643,193.861,340.9,192.06z"/>
				</g>
			</g>
		</g>
		<g>
			<g>
				<g>
					<path fill="#323657" d="M313.675,225.035c0.004-0.002,0.008-0.002,0.012-0.001
						C313.636,225.056,313.629,225.057,313.675,225.035z"/>
				</g>
			</g>
		</g>
		<g>
			<g>
				<g>
					<path fill="#3A3F47" d="M351.32,183.73c0,0,8.21-0.387,1.432,12.432L351.32,183.73z"/>
				</g>
			</g>
		</g>
		<g>
			<g>
				<polygon fill="#918783" points="369.614,314.174 369.004,315.894 343.194,307.895 344.431,304.415 				"/>
			</g>
		</g>
		<g>
			<g>
				<rect x="342.31" y="278.611" fill="#918783" width="2.932" height="28.06"/>
			</g>
		</g>
		<g>
			<g>
				<rect x="335.125" y="277.121" fill="#5E5854" width="17.301" height="1.651"/>
			</g>
		</g>
		<g>
			<g>
				<polygon fill="#918783" points="317.709,314.174 318.319,315.894 344.13,307.895 342.995,304.197 				"/>
			</g>
		</g>
		<g>
			<g>
				<polygon fill="#918783" points="335.896,315.709 335.896,317.707 344.13,307.895 342.995,304.197 				"/>
			</g>
		</g>
		<g>
			<g>
				<circle fill="#BFB2AC" cx="317.71" cy="316.563" r="2.412"/>
			</g>
		</g>
		<g>
			<g>
				<circle fill="#BFB2AC" cx="338.101" cy="316.563" r="2.412"/>
			</g>
		</g>
		<g>
			<g>
				<circle fill="#BFB2AC" cx="369.614" cy="316.563" r="2.413"/>
			</g>
		</g>
		<g>
			<path fill="#E2D2CA" d="M326.26,277.121h34.806c1.707,0,3.092-1.387,3.092-3.094v-0.079c0-1.706-1.385-3.092-3.092-3.092H326.26
				c-1.708,0-3.093,1.386-3.093,3.092v0.079C323.167,275.734,324.552,277.121,326.26,277.121z"/>
		</g>
		<g>
			<rect x="250.364" y="244.538" fill="#706865" width="2.337" height="72.025"/>
		</g>
		<g>
			<path fill="#F2E2D9" d="M271.386,229.36h54.473c1.702,0,3.083-1.381,3.083-3.085v-36.61c0-1.703-1.381-3.084-3.083-3.084h-54.473
				c-1.704,0-3.085,1.381-3.085,3.084v36.61C268.301,227.979,269.682,229.36,271.386,229.36z"/>
		</g>
		<g>
			<rect x="270.677" y="188.894" fill="#F5F7FF" width="55.89" height="33.763"/>
		</g>
		<g>
			<circle fill="#918681" cx="298.622" cy="225.358" r="1.956"/>
		</g>
		<g>
			<path fill="#E2D2CA" d="M286.067,240.497v-0.763c0,0,1.069-4.733,8.641-4.733c7.57,0,7.416,5.496,7.416,5.496H286.067z"/>
		</g>
		<g>
			<g>
				<path fill="#EEA886" d="M302.217,235.704c0,0-1.644-0.127-2.247-0.491s-4.207-2.787-5.054-2.4
					c-0.848,0.389-6.481,2.115-6.288,2.938c0.199,0.824,0.719,0.744,1.116,0.6c0.397-0.147,4.49-1.006,4.851-0.86
					c0,0-4.02,1.467-4.034,2.536c-0.018,1.068,0.841,1.33,1.222,1.735c0.381,0.403,0.838,1.408,1.874,1.485s6.089-1.683,7.13-1.761
					c1.04-0.082,2.966,0.063,3.096-0.106C304.015,239.211,302.217,235.704,302.217,235.704z"/>
			</g>
		</g>
		<g>
			<g>
				<g>
					<path fill="#323657" d="M332.157,208.145c5.244-0.921,10.762-2.245,10.762-2.245l9.765-0.397c0,0,8.963,1.973,12.492,3.565
						c0.336,0.152,0.337,7.997,1.257,10.053l-2.926,6.174c0,0-1.691,12.231-2.042,17.67c-0.161,2.497,0.455,24.132,0.455,24.132
						s-0.877,0.432-7.541,1.168c-6.666,0.733-23.318-0.267-23.425-1.054c-0.104-0.787,3.226-29.312,3.373-30.789
						c0.227-2.267-0.653-12.744-0.653-12.744c-1.256,1.687-4.457,9.305-7.795,12.93c-1.965,2.132-11.683,3.439-13.514,3.5
						c-3.988,0.132-11.263,0.927-11.477,0.539c-0.168-0.233-0.635-6.458-0.178-6.609c0.399-0.133,13.908-0.911,17.369-2.748
						c1.266-0.67,5.052-8.925,5.052-8.925S329.264,209.443,332.157,208.145z"/>
				</g>
			</g>
		</g>
		<g>
			<path fill="#E2D2CA" d="M351.401,266.47h16.396c3.278,0,5.935-2.657,5.935-5.937v-27.277c0-3.279-2.656-5.936-5.935-5.936
				h-16.396c-3.279,0-5.937,2.656-5.937,5.936v27.277C345.465,263.813,348.122,266.47,351.401,266.47z"/>
		</g>
		<g>
			<path fill="#E2D2CA" d="M350.475,275.561c4.167,0,7.547-1.399,10.047-4.16c5.65-6.239,4.635-17.206,4.591-17.669
				c-0.087-0.864-0.857-1.496-1.722-1.41c-0.863,0.086-1.495,0.855-1.409,1.719c0.012,0.126,0.912,10.066-3.797,15.256
				c-1.904,2.099-4.428,3.119-7.71,3.119c-0.868,0-1.572,0.703-1.572,1.574C348.902,274.857,349.606,275.561,350.475,275.561z"/>
		</g>
		<g>
			<g>
				<g>
					<path fill="#DFE1E8" d="M306.674,193.366h15.489c0.243,0,0.44-0.197,0.44-0.442v-0.898c0-0.246-0.197-0.441-0.44-0.441h-15.489
						c-0.244,0-0.44,0.195-0.44,0.441v0.898C306.233,193.169,306.43,193.366,306.674,193.366z"/>
				</g>
			</g>
		</g>
		<g>
			<g>
				<g>
					<path fill="#DFE1E8" d="M306.674,197.193h15.489c0.243,0,0.44-0.199,0.44-0.443v-0.899c0-0.244-0.197-0.442-0.44-0.442h-15.489
						c-0.244,0-0.44,0.198-0.44,0.442v0.899C306.233,196.994,306.43,197.193,306.674,197.193z"/>
				</g>
			</g>
		</g>
		<g>
			<g>
				<g>
					<path fill="#DFE1E8" d="M307.719,219.967h13.398c0.822,0,1.486-0.665,1.486-1.485v-17.196c0-0.822-0.664-1.487-1.486-1.487
						h-13.398c-0.821,0-1.485,0.665-1.485,1.487v17.196C306.233,219.302,306.897,219.967,307.719,219.967z"/>
				</g>
			</g>
		</g>
		<g>
			<g>
				<g>
					<path fill="#DFE1E8" d="M276.125,219.967h24.448c1.3,0,2.353-1.055,2.353-2.353v-23.678c0-1.301-1.053-2.353-2.353-2.353
						h-24.448c-1.3,0-2.354,1.052-2.354,2.353v23.678C273.771,218.912,274.825,219.967,276.125,219.967z"/>
				</g>
			</g>
		</g>
	</g>
	<g>
		<path fill="#EEA886" d="M110.043,242.536c0,0,1.7,0.342,2.513,0.367c0.812,0.025,4.572-1.681,5.775-1.518
			c1.203,0.163,9.049,3.496,9.404,3.74c0.356,0.241-0.167,0.778-0.167,0.778l-18.012,0.213L110.043,242.536z"/>
		
			<rect x="103.963" y="245.861" transform="matrix(1 -0.0076 0.0076 1 -1.8741 0.9104)" fill="#323657" width="29.962" height="2.744"/>
		
			<rect x="122.033" y="232.392" transform="matrix(0.2925 -0.9563 0.9563 0.2925 -126.6014 296.4187)" fill="#323657" width="29.961" height="2.745"/>
		<g>
			<path fill="#515269" d="M79.224,303.933l-1.155,2.499c0,0-4.867-1.813-4.892-1.876c-0.024-0.06,1.34-3.472,1.34-3.472
				L79.224,303.933z"/>
		</g>
		<g>
			<path fill="#6A6B8A" d="M120.906,303.877l1.346,3.937c0,0-5.341,1.176-6.117,1.113c-0.068-0.006-1.01-4.457-1.01-4.457
				L120.906,303.877z"/>
		</g>
		<path fill="#C4C6D1" d="M115.539,307.78c0,0,3.732-1.015,3.844-1.176c0.111-0.161,1.479-1.086,2.185-0.969
			c0.706,0.118,0.77,0.963,1.476,1.136c0.705,0.172,6.159,1.916,6.915,2.362c0.755,0.445,4.364-0.867,5.059,0.067
			c0.695,0.934,1.369,3.391-4.3,4.24s-11.739,3.381-13.096,3.034C116.262,316.132,115.331,309.292,115.539,307.78z"/>
		<path fill="#C4C6D1" d="M72.794,303.89c0,0,3.459,1.477,3.641,1.42c0.182-0.057,1.784,0.063,2.251,0.579
			c0.468,0.516,0.007,1.198,0.441,1.755c0.434,0.556,2.9,3.821,3.622,4.575c0.59,0.615,3.828,1.191,4.867,2.276
			c0.783,0.817-0.138,4.089-5.645,2.525c-5.363-1.521-12.005-4.16-12.833-5.24C68.31,310.698,71.724,304.918,72.794,303.89z"/>
		<g>
			<path fill="#34395C" d="M76.341,254.838c0,0,15.214,6.766,18.438,9.079s10.283,6.573,10.518,7.615
				c0.235,1.042,1.632,0.027-0.871,5.236c-2.504,5.208-14.34,17.743-15.451,19.106c-1.157,1.42-9.367,9.934-9.367,9.934
				l-6.176-4.652c0,0,11.874-17.458,13.592-20.026c1.718-2.567,2.492-2.947,1.477-4.081c-1.017-1.133-5.076-1.116-25.973-9.771
				c-2.087-0.865-7.913-2.868-8.681-5.673c-1.388-5.066-0.198-11.488,5.418-14.313C64.884,244.469,76.341,254.838,76.341,254.838z"
				/>
		</g>
		<g>
			<path fill="#EEA886" d="M83.576,205.86c-0.133,0.117-0.278,0.376-0.429,0.731c-0.219,0.509-0.45,1.219-0.674,2
				c-0.689,2.413-1.316,5.51-1.316,5.51s-8.708-7.256-7.478-7.711c1.231-0.457,2.142-2.576,2.142-2.576
				S84.495,205.047,83.576,205.86z"/>
		</g>
		<g>
			<path fill="#EDDCC5" d="M83.033,230.924c0,0-7.066,13.513-7.373,18.578c-0.306,5.066-14.755-1.593-14.755-1.593L83.033,230.924z"
				/>
		</g>
		<g>
			<path fill="#323657" d="M75.688,249.179l0.162,1.26l0.251,1.661v0.001c0,0-0.001-0.001-0.003,0
				c-0.217-0.015-14.108-0.888-15.115-0.632c-1.014,0.26,1.912-3.274,1.912-3.274L75.688,249.179z"/>
		</g>
		<g>
			<path fill="#494F80" d="M76.102,252.101c0,0,15.718,3.698,19.605,4.94c3.886,1.241,10.574,3.43,12.371,4.453
				c0.955,0.545,2.412,1.36,4.157,7.04c1.979,6.439,6.496,24.55,7.521,27.37c0.644,1.771,2.495,8.738,2.495,8.738l-8.032,1.395
				c0,0-9.565-19.259-10.342-24.393c-1.306-8.64-4.655-8.688-6.009-9.474c-1.352-0.788-7.868,0.689-31.052-1.16
				c-2.317-0.186-8.651-0.301-10.29-2.8c-2.963-4.516-5.952-9.647-1.352-14.188S76.102,252.101,76.102,252.101z"/>
		</g>
		<g>
			<path fill="#EEA886" d="M86.646,187.671c0,0,2.721,4.697,2.101,5.976c-0.619,1.279,2.842,4.378,2.273,5.034
				c-0.568,0.655-1.739,1.45-1.72,1.643c0.02,0.192-1.006,6.314-2.341,6.45c-1.335,0.138-10.462-0.336-11.219-3.19
				s-2.982-9.108-3.507-10.269C71.71,192.151,76.971,183.184,86.646,187.671z"/>
		</g>
		<g>
			<path fill="#FCCCA2" d="M75.395,186.764c-0.76,0.563-1.374,1.16-1.864,1.771c-0.599,0.281-4.127,2.034-3.395,3.93
				c0.988,2.55,4.979,9.38,5.315,10.093c0.045,0.096,0.045-0.084,0.012-0.467c0.246-2.412,3.214-5.114,3.214-5.114l1.583-0.716
				c-0.826-1.535-0.5-2.972-0.5-2.972c1.792-1.922,7.75-3.992,7.75-3.992C86.661,180.797,79.387,183.8,75.395,186.764z"/>
		</g>
		<g>
			<path fill="#EEA886" d="M78.09,194.976c-0.42-0.643-2.644-0.538-2.319,1.357c0.324,1.896,3.051,3.417,3.645,2.572
				C80.009,198.06,78.54,195.66,78.09,194.976z"/>
		</g>
		<path fill="#FFC05C" d="M73.679,206.391c0,0-11.03,6.427-13.52,17.65c-2.488,11.223-6.989,30.932-7.069,33.268
			c0,0,14.926-7.186,23.011-5.208c0,0,5.091-18.289,7.769-22.608c2.678-4.319-1.302-14.475-1.302-14.475
			S78.763,208.925,73.679,206.391z"/>
		<path fill="#5E5E5B" d="M33.461,211.414l8.888,26.065c0.067,0.197,0.108,0.404,0.121,0.613l2.131,34.273l37.162,0.827
			l10.829,39.418c0.327,1.194,0.118,2.473-0.599,3.49c-0.471,0.666-1.146,1.258-2.086,1.373c-2.357,0.288-50.066,0-50.066,0v-1.972
			c0-0.983,0.813-1.779,1.817-1.779h44.601c0.736,0,1.442-0.32,1.894-0.89c0.264-0.332,0.453-0.748,0.379-1.219
			c-0.197-1.257-9.719-33.373-9.719-33.373l-35.933-0.637c-1.636-0.029-2.966-1.301-3.034-2.902l-1.562-36.877
			c-0.009-0.235-0.048-0.469-0.113-0.693l-7.264-24.92c0,0-0.76-1.737,0.638-1.905C32.946,210.139,33.307,210.96,33.461,211.414z"/>
		<path fill="#D6985E" d="M81.962,273.919c0,0,0.028-2.846-3.873-3.044c-4.478-0.229-33.607-0.431-33.607-0.431l0.195,3.026
			L81.962,273.919z"/>
		<path fill="#D6985E" d="M99.954,250.72v1.328h63.304v-1.328c0-1.238-0.833-2.241-1.859-2.241h-59.587
			C100.786,248.479,99.954,249.481,99.954,250.72z"/>
		<path fill="#D9BEAD" d="M140.54,316.805h19.129v-3.061h-17.251c-1.038,0-1.878,0.842-1.878,1.879V316.805z"/>
		<rect x="155.927" y="252.048" fill="#D9BEAD" width="2.528" height="64.757"/>
		<rect x="150.847" y="252.048" fill="#D9BEAD" width="2.528" height="64.757"/>
		<path fill="#A77860" d="M83.147,206.592c-0.219,0.509-0.45,1.219-0.674,2c-1.303-0.542-3.789-2.836-3.866-2.908
			C79.644,206.086,83.147,206.592,83.147,206.592z"/>
		<path fill="#DBB28A" d="M126.813,252.048h45.223v-1.328c0-1.238-1.063-2.241-2.373-2.241h-35.77L126.813,252.048z"/>
		<g>
			<path fill="#FFC05C" d="M78.52,215.083c0,0,2.626,3.722,4.25,6.539c1.84,3.196,3.65,6.352,4.049,7.06
				c0.813,1.444,3.702,2.216,4.98,2.764c1.176,0.505,20.766,10.99,21.015,10.967c0.25-0.023-2.109,3.907-2.109,3.907
				s-27.202-7.801-28.424-8.917c-1.222-1.118-4.852-6.205-6.337-8.299c-1.415-1.996-3.583-5.27-4.733-6.682
				c-1.286-1.575-3.984-6.973-0.554-9.664C75.041,209.318,77.465,213.503,78.52,215.083z"/>
		</g>
		<path fill="#D19E4C" d="M71.064,222.234c0,0,3.146,8.533,5.038,11.442c1.893,2.909,3.981,5.325,3.981,5.325l1.007-2.943
			C81.09,236.059,72.947,224.859,71.064,222.234z"/>
	</g>
	<g>
		<path fill="#C44747" d="M150.289,240.209h17.507c0.407,0,0.738-0.331,0.738-0.738v-2.678c0-0.408-0.331-0.737-0.738-0.737h-17.507
			V240.209z"/>
		<path fill="#5084C7" d="M147.921,244.362h17.505c0.408,0,0.738-0.331,0.738-0.737v-2.679c0-0.406-0.33-0.737-0.738-0.737h-17.505
			V244.362z"/>
		<path fill="#E55353" d="M142.392,240.209h17.506c0.408,0,0.738-0.331,0.738-0.738v-2.678c0-0.408-0.33-0.737-0.738-0.737h-17.506
			V240.209z"/>
		<path fill="#5084C7" d="M140.023,244.362h17.507c0.407,0,0.738-0.331,0.738-0.737v-2.679c0-0.406-0.331-0.737-0.738-0.737h-17.507
			V244.362z"/>
		<path fill="#FAE6DE" d="M142.392,239.78h17.007c0.408,0,0.738-0.33,0.738-0.737v-1.822c0-0.408-0.331-0.738-0.738-0.738h-17.007
			V239.78z"/>
		<path fill="#FAE6DE" d="M140.023,243.874h17.008c0.407,0,0.737-0.331,0.737-0.739v-1.699c0-0.408-0.33-0.739-0.737-0.739h-17.008
			V243.874z"/>
		<path fill="#FFCA55" d="M149.154,248.516h17.507c0.408,0,0.738-0.33,0.738-0.738V245.1c0-0.408-0.33-0.737-0.738-0.737h-17.507
			V248.516z"/>
		<path fill="#FFCA55" d="M141.257,248.516h17.507c0.407,0,0.737-0.33,0.737-0.738V245.1c0-0.408-0.331-0.737-0.737-0.737h-17.507
			V248.516z"/>
		<path fill="#FAE6DE" d="M141.257,248.026h17.008c0.407,0,0.737-0.329,0.737-0.737v-1.7c0-0.407-0.33-0.739-0.737-0.739h-17.008
			V248.026z"/>
		<polygon fill="#EEA886" points="212.743,305.499 211.642,301.849 206.698,302.558 207.378,305.845 		"/>
		<polygon fill="#EEA886" points="180.221,305.774 179.909,307.764 174.527,306.77 174.867,303.794 		"/>
		<g>
			<path fill="#303669" d="M192.899,241.952c0,0,0.835,7.134,1.753,14.446c0.208,1.662,0.422,3.336,0.629,4.935
				c0.684,5.255,1.318,9.724,1.588,10.507c0.73,2.11,8.766,31.285,8.766,31.285s6.843,0.707,7.107-0.158
				c0,0-5.388-32.83-5.29-34.026c0.1-1.195-1.075-34.939-1.075-34.939S193.299,240.013,192.899,241.952z"/>
		</g>
		<g>
			<path fill="#303669" d="M185.669,231.709c0,0-7.052,33-7.649,35.526c-0.599,2.525-4.342,37.272-4.342,37.272
				s2.194,1.538,7.451,1.272c0,0,7.995-36.47,8.634-37.68c2.478-4.698,11.06-27.993,12.256-31.25
				c1.196-3.256,4.505-6.547,4.505-6.547S197.879,225.244,185.669,231.709z"/>
		</g>
		<g>
			<path fill="#EEA886" d="M167.372,196.199c0,0-4.975-2.71-5.441-2.599c-0.467,0.112-0.582,0.406-0.125,0.678
				c0.456,0.275,4.739,2.766,4.739,2.766s-6.369-2.165-6.771-2.163c-0.236,0.001-0.491,0.553-0.258,0.723
				c0.231,0.171,6.438,2.698,6.438,2.698s-5.95-2.011-6.284-1.9c-0.292,0.095-0.405,0.667,0.027,0.847
				c0.432,0.184,5.864,2.379,5.864,2.379s-4.409-1.175-4.637-0.905c-0.14,0.167-0.38,0.633,0.766,0.896
				c1.146,0.268,3.794,1.195,3.794,1.195L167.372,196.199z"/>
		</g>
		<g>
			<g>
				<path fill="#EEA886" d="M172.654,200.256c0,0-1.586-1.001-1.507-2.104c0.067-0.939-0.483-2.224-0.652-2.618
					c-0.226-0.529-0.358-2.412-0.979-2.131c-0.621,0.279,0.078,3.11,0.115,3.732c0.036,0.623-2.066-1.082-2.673-1.077
					c-0.607,0.007-2.967,3.812-1.401,4.806c1.565,0.994,3.828,0.971,4.072,1.202c0.244,0.233,1.114,0.772,1.114,0.772
					L172.654,200.256z"/>
			</g>
		</g>
		<g>
			<path fill="#EEA886" d="M189.138,196.106c0,0-3.623,9.385-4.365,9.347c-0.742-0.037-13.139-6.097-13.139-6.097
				s-1.953,2.789-1.343,3.191c0.851,0.562,16.596,12.472,17.816,11.882s1.772-7.894,1.772-7.894S192.922,196.515,189.138,196.106z"
				/>
		</g>
		<g>
			<path fill="#EEA886" d="M188.061,181.54c0,0,0.026,0.35,0.057,0.892c0.023,0.397,0.049,0.897,0.069,1.44
				c0.055,1.47,0.067,3.237-0.129,4.042c-0.366,1.501,6.439-4.607,6.439-4.607s-0.337-4.984,0.175-10.547
				C195.186,167.197,188.061,181.54,188.061,181.54z"/>
		</g>
		<g>
			<path fill="#EDDAD3" d="M184.687,211.973c0.162,0.626,0.327,1.278,0.491,1.965c0.075,0.313,0.146,0.639,0.21,0.975
				c0.927,4.833,0.106,12.641-0.666,20.488c0,0,4.576,2.385,22.653,5.296c0.718-23.447-4.555-47.454-4.555-47.454
				c-1.342-5.092-4.131-6.928-8.333-10.106c0,0-0.451-0.054-6.166,4.034c-0.4,0.287-2.408,4.006-3.565,8.12
				C182.709,202.57,183.234,206.34,184.687,211.973z"/>
		</g>
		<g>
			<path fill="#A77860" d="M188.118,182.432c0.023,0.397,0.058,1.168,0.079,1.71c2.227-1.548,3.274-2.999,3.818-3.615
				C190.992,181.542,188.118,182.432,188.118,182.432z"/>
		</g>
		<path fill="#EEA886" d="M190.207,192.362c0,0,1.645-5.632,7.591-3.112c3.271,1.385,3.331,5.534-1.873,19.838
			c0,0-3.621,9.752-4.52,10.833c-3.262,3.927-17.051,17.658-18.751,17.38l-3.286-1.37c0,0,6.8-8.361,9.29-11.622
			c2.504-3.278,6.819-10.317,6.819-10.317L190.207,192.362z"/>
		<path fill="#1E234D" d="M194.652,256.398c0.208,1.662,0.422,3.336,0.629,4.935c0,0,0,0,0-0.001
			c2.539-6.422,5.091-19.953,5.142-20.197C200.069,242.092,194.652,256.398,194.652,256.398z"/>
		<path fill="#EEA886" d="M194.487,183.136c0,0-8.551,9.373-10.678,16.221c0,0,0.592-5.682,4.355-12.165
			C188.164,187.191,190.808,183.188,194.487,183.136z"/>
		<g>
			<path fill="#EEA886" d="M183.819,167.508c0,0-2.345,3.977-2.353,4.811c-0.008,0.832,1,0.834,0.472,1.706
				c-0.528,0.872-1.599,2.505-1.083,3.034c0.516,0.528,1.749,0.27,2.004,1.404c0.255,1.135,1.687,4.59,3.263,4.583
				c1.575-0.007,6.996-2.737,7.355-3.851c0.36-1.112,2.419-7.315,3.074-8.509c0.655-1.193-10.752-6.952-11.742-5.064
				C183.819,167.508,183.819,167.508,183.819,167.508z"/>
		</g>
		<g>
			<path fill="#3A3F47" d="M184.031,167.105c0,0-1.696-0.824-1.092-2.502c0.606-1.678,2.05-3.906,5.361-2.837
				s5.814,3.336,8.104,3.705c2.288,0.369,2.819,2.6,0.807,6.754c-2.011,4.154-2.875,6.202-2.875,6.202s-0.635-3.585-1.503-3.446
				c-0.869,0.138-2.268-2.225-2.268-2.225l-0.229,0.61l-1.546-0.104c0,0,2.016-4.353,0.949-4.903
				C188.67,167.809,184.197,167.589,184.031,167.105z"/>
		</g>
		<g>
			<path fill="#3A3F47" d="M188.789,173.264c0,0-1.024,3.727-1.872,3.767c-0.848,0.04-3.743,0.516-4.283,0.941
				c0,0-0.424,0.323-0.245,0.863c0.179,0.541,0.689,3.764-0.334,4.833c0,0,0.728,1.15,4.381-0.13
				c3.653-1.279,5.578-3.012,5.578-3.012s-2.62-4.987-1.68-7.159L188.789,173.264z"/>
		</g>
		<g>
			<path fill="#EEA886" d="M190.568,172.122c0,0,1.064-2.011,2.996-0.614c1.405,1.015-0.464,4.407-1.918,4.34
				C190.19,175.78,189.778,173.884,190.568,172.122z"/>
		</g>
		<path fill="#EDDAD3" d="M199.088,202.213l-11.575-2.08c0,0,0.676-13.178,7.502-12.624
			C201.841,188.062,200.919,194.387,199.088,202.213z"/>
		<g>
			<g>
				<path fill="#EEA886" d="M169.9,235.4c0,0-1.25,0.553-1.832,0.522c-0.582-0.029-4.162-0.385-4.627,0.229
					c-0.465,0.614-3.899,4.083-3.434,4.607s0.814,0.262,1.047,0c0.233-0.262,2.882-2.492,3.202-2.527c0,0-2.357,2.645-1.95,3.431
					c0.407,0.787,1.135,0.641,1.572,0.787c0.437,0.146,1.164,0.698,1.949,0.349c0.787-0.349,3.784-3.611,4.511-4.079
					c0.728-0.466,4.161-2.251,4.19-2.426C174.558,236.119,169.9,235.4,169.9,235.4z"/>
			</g>
		</g>
		<path fill="#565E96" d="M179.909,307.764c0,0-4.061-0.86-4.201-0.987c-0.141-0.126-0.987-1.751-1.621-1.48
			c-0.635,0.27-0.677,2.228-1.3,2.549c-0.622,0.321-5.542,3.519-6.15,4.107c-0.608,0.588-4.285,0.172-4.726,1.203
			c-0.441,1.032-0.52,3.487,4.984,3.006c5.504-0.48,11.762,0.523,12.957-0.104C181.047,315.428,180.259,309.352,179.909,307.764z"/>
		<path fill="#565E96" d="M212.743,305.499c0,0-4.145-0.199-4.305-0.302c-0.158-0.103-1.253-1.57-1.837-1.203
			s-0.312,2.309-0.875,2.724c-0.563,0.418-4.908,4.362-5.414,5.04c-0.507,0.677-4.203,0.854-4.473,1.942
			c-0.27,1.09,0.045,3.524,5.402,2.17c5.356-1.354,11.694-1.365,12.772-2.177C215.094,312.883,213.344,307.011,212.743,305.499z"/>
	</g>
	<g>
		<path fill="#E8E8E8" d="M91.924,158.208l-1.679-0.095c0.167-2.985,0.404-5.919,0.705-8.722l1.672,0.178
			C92.325,152.345,92.09,155.251,91.924,158.208z M293.368,141.077c-0.087-0.147-2.105-3.684-3.405-8.655l1.63-0.424
			c1.237,4.74,3.212,8.205,3.232,8.239L293.368,141.077z M93.854,140.646l-1.659-0.284c0.53-3.086,1.161-6.088,1.877-8.923
			l1.631,0.412C94.999,134.645,94.376,137.604,93.854,140.646z M98.297,123.27l-1.585-0.566c1.054-2.952,2.249-5.784,3.552-8.417
			l1.508,0.746C100.497,117.607,99.328,120.378,98.297,123.27z M290.643,123.269l-1.68-0.11c0.219-3.337,1.144-6.36,2.751-8.983
			l1.435,0.879C291.686,117.441,290.843,120.207,290.643,123.269z M299.292,109.015l-0.896-1.424
			c2.329-1.467,5.113-2.688,8.276-3.631l0.228-0.067l0.489,1.609l-0.237,0.071C304.135,106.471,301.491,107.628,299.292,109.015z
			 M106.26,107.332l-1.39-0.95c1.745-2.554,3.677-4.956,5.742-7.138l1.222,1.156C109.83,102.517,107.955,104.85,106.26,107.332z
			 M315.949,102.072l-0.772-1.495c2.756-1.423,5.224-3.089,7.34-4.951l1.11,1.264C321.409,98.842,318.825,100.585,315.949,102.072z
			 M118.458,94.465l-1.016-1.341c2.388-1.808,4.988-3.472,7.729-4.944l0.796,1.481C123.304,91.092,120.777,92.708,118.458,94.465z
			 M329.604,89.757l-1.445-0.86c1.509-2.54,2.555-5.291,3.104-8.174l1.652,0.315C332.33,84.115,331.217,87.049,329.604,89.757z
			 M134.122,85.975l-0.594-1.575c2.721-1.025,5.663-1.957,8.743-2.764l0.427,1.627C139.672,84.056,136.788,84.969,134.122,85.975z
			 M151.508,81.328l-0.302-1.656c2.789-0.508,5.743-0.963,9.033-1.39l0.217,1.668C157.195,80.375,154.268,80.825,151.508,81.328z
			 M169.467,78.922l-0.171-1.673c2.091-0.214,4.175-0.414,6.245-0.614l2.815-0.272l0.163,1.675l-2.816,0.272
			C173.636,78.509,171.555,78.709,169.467,78.922z M187.583,77.078l-0.197-1.67c3.374-0.402,6.304-0.82,8.959-1.279l0.287,1.658
			C193.948,76.25,190.989,76.673,187.583,77.078z M205.585,73.822l-0.447-1.623c3.131-0.862,5.881-1.845,8.406-3.004l0.702,1.529
			C211.638,71.921,208.804,72.934,205.585,73.822z M331.447,71.958c-0.393-2.827-1.215-5.681-2.443-8.48l1.542-0.676
			c1.289,2.942,2.152,5.944,2.568,8.925L331.447,71.958z M222.145,65.96l-1.041-1.321c1.062-0.839,2.07-1.743,2.995-2.692
			c1.156-1.183,2.352-2.348,3.554-3.463l1.145,1.234c-1.184,1.096-2.358,2.242-3.494,3.404
			C224.327,64.123,223.265,65.078,222.145,65.96z M324.522,55.817c-0.7-0.948-1.46-1.891-2.255-2.802
			c-1.155-1.325-2.411-2.597-3.733-3.777l1.12-1.254c1.375,1.227,2.68,2.547,3.88,3.926c0.824,0.944,1.612,1.922,2.34,2.905
			L324.522,55.817z M235.679,53.918l-1.02-1.337c2.438-1.861,4.979-3.609,7.55-5.192l0.881,1.433
			C240.567,50.376,238.072,52.091,235.679,53.918z M250.982,44.51l-0.728-1.517c2.771-1.329,5.622-2.51,8.475-3.509l0.556,1.588
			C256.492,42.051,253.697,43.208,250.982,44.51z M311.336,44.007c-2.518-1.476-5.235-2.748-8.075-3.78l0.573-1.581
			c2.938,1.066,5.748,2.382,8.352,3.909L311.336,44.007z M267.918,38.593l-0.368-1.641c3.012-0.676,6.063-1.167,9.066-1.457
			l0.16,1.674C273.844,37.454,270.863,37.934,267.918,38.593z M294.637,37.883c-2.879-0.539-5.873-0.87-8.897-0.985l0.063-1.681
			c3.107,0.118,6.186,0.458,9.145,1.011L294.637,37.883z"/>
	</g>
</g>
</svg>
