<?xml version="1.0" encoding="utf-8"?>
<!-- Generator: Adobe Illustrator 23.0.2, SVG Export Plug-In . SVG Version: 6.00 Build 0)  -->
<svg version="1.1" id="Layer_1" xmlns="http://www.w3.org/2000/svg" xmlns:xlink="http://www.w3.org/1999/xlink" x="0px" y="0px"
	 viewBox="0 0 750 420" style="enable-background:new 0 0 750 420;" xml:space="preserve">
<style type="text/css">
	.st0{fill:#E0F5FE;}
	.st1{fill:#F3F4FF;}
	.st2{fill:#EFF9F8;}
	.st3{fill:#FBF7EE;}
	.st4{fill:none;stroke:#00A9FA;stroke-width:3;stroke-miterlimit:10;}
	.st5{fill:none;stroke:#00A9FA;stroke-width:3;stroke-miterlimit:10;stroke-dasharray:12.3373,12.3373;}
	.st6{fill:none;stroke:#00A9FA;stroke-width:3;stroke-miterlimit:10;stroke-dasharray:11.7302,11.7302;}
	.st7{fill:none;stroke:#00A9FA;stroke-width:3;stroke-miterlimit:10;stroke-dasharray:11.9556,11.9556;}
	.st8{fill:none;stroke:#00A9FA;stroke-width:3;stroke-miterlimit:10;stroke-dasharray:11.7883,11.7883;}
	.st9{fill:none;stroke:#33475B;stroke-width:1.4745;stroke-miterlimit:10;}
	.st10{fill:none;stroke:#33475B;stroke-miterlimit:10;}
	.st11{fill:#CBD6E2;}
	.st12{fill:none;stroke:#33475B;stroke-width:2.2876;stroke-miterlimit:10;}
	.st13{fill:none;stroke:#33475B;stroke-width:2.2876;stroke-miterlimit:10;stroke-dasharray:11.8349,11.8349;}
	.st14{fill:none;stroke:#33475B;stroke-width:2;stroke-miterlimit:10;}
	.st15{fill:none;stroke:#33475B;stroke-width:2;stroke-miterlimit:10;stroke-dasharray:10.3472,10.3472;}
	.st16{fill:#CBD6E2;stroke:#EAF0F6;stroke-width:0.5;stroke-miterlimit:10;}
	.st17{fill:#CBD6E2;stroke:#EAF0F6;stroke-width:0.25;stroke-miterlimit:10;}
	.st18{fill:#33475B;}
	.st19{fill:#253342;}
	.st20{fill:#FFBE9D;}
	.st21{fill:#AA6550;}
	.st22{fill:#263238;}
	.st23{fill:#FAFAFA;}
	.st24{fill:#FFF8F6;}
	.st25{fill:#00BDA5;}
	.st26{fill:url(#SVGID_1_);}
	.st27{fill:url(#SVGID_2_);}
	.st28{fill:url(#SVGID_3_);}
	.st29{fill:url(#SVGID_4_);}
	.st30{fill:url(#SVGID_5_);}
	.st31{fill:#6A78D1;}
	.st32{fill:#FF7A59;}
	.st33{fill:#F5C26B;}
	.st34{fill:#00A9FA;}
	.st35{fill:#EAF0F6;}
	.st36{fill:#7C98B6;}
	.st37{fill:#FFFFFF;}
	.st38{fill:#F2545B;}
	.st39{fill:#FCE3E5;}
	.st40{fill:#00A4BD;}
	.st41{fill:#BDE1E5;}
	.st42{fill:#EB996E;}
	.st43{fill:#455A64;}
	.st44{fill:#E2A896;}
	.st45{fill:#A36957;}
	.st46{fill:none;stroke:#33475B;stroke-width:0.75;stroke-miterlimit:10;}
	.st47{fill:#E0E0E0;}
	.st48{fill:#FF725E;}
	.st49{fill:#E5BAAB;}
	.st50{fill:#D78776;}
	.st51{fill:#F5F5F5;}
	.st52{opacity:0.3;}
	.st53{clip-path:url(#SVGID_9_);}
	.st54{fill:#E29996;}
	.st55{fill:#8A4A43;}
	.st56{fill:#C68675;}
	.st57{fill:#65463C;}
	.st58{fill-rule:evenodd;clip-rule:evenodd;fill:#FF725E;}
	.st59{fill-rule:evenodd;clip-rule:evenodd;fill:#CBD6E2;}
	.st60{opacity:0.4;}
	.st61{fill:none;stroke:#263238;stroke-width:0.25;stroke-miterlimit:10;}
	.st62{fill:#FFFFFF;stroke:#CBD6E2;stroke-width:1.0656;stroke-miterlimit:10;}
	.st63{fill:none;stroke:#CBD6E2;stroke-miterlimit:10;}
	.st64{fill:none;stroke:#CBD6E2;stroke-width:0.7968;stroke-miterlimit:10;}
	.st65{fill:none;stroke:#CBD6E2;stroke-width:0.5357;stroke-miterlimit:10;}
	.st66{fill:none;stroke:#EAF0F6;stroke-miterlimit:10;}
	.st67{fill:#FFFFFF;stroke:#CBD6E2;stroke-width:1.0726;stroke-miterlimit:10;}
	.st68{fill:none;stroke:#33475B;stroke-width:0.6995;stroke-miterlimit:10;}
	.st69{fill:none;stroke:#CBD6E2;stroke-width:0.3497;stroke-miterlimit:10;}
	.st70{fill:none;stroke:#CBD6E2;stroke-width:0.373;stroke-miterlimit:10;}
	.st71{fill:none;stroke:#00BDA5;stroke-width:0.373;stroke-miterlimit:10;}
	.st72{fill:none;stroke:#7C98B6;stroke-width:0.3614;stroke-miterlimit:10;}
	.st73{fill:none;stroke:#CBD6E2;stroke-width:0.3614;stroke-miterlimit:10;}
	.st74{fill:none;stroke:#33475B;stroke-width:0.6995;stroke-linecap:round;stroke-miterlimit:10;}
	.st75{fill:none;stroke:#FF7A59;stroke-width:0.3497;stroke-miterlimit:10;}
	.st76{fill:#EAF0F6;stroke:#CBD6E2;stroke-width:0.5246;stroke-miterlimit:10;}
	.st77{fill:none;stroke:#33475B;stroke-width:0.5246;stroke-miterlimit:10;}
	.st78{fill:none;stroke:#7C98B6;stroke-width:0.5246;stroke-miterlimit:10;}
	.st79{fill:none;stroke:#00BDA5;stroke-width:0.5246;stroke-miterlimit:10;}
	.st80{fill:none;stroke:#FF7A59;stroke-width:0.6995;stroke-linecap:round;stroke-miterlimit:10;}
	.st81{fill:none;stroke:#FFFFFF;stroke-width:0.6995;stroke-linecap:round;stroke-miterlimit:10;}
	.st82{fill:none;stroke:#CBD6E2;stroke-width:0.6995;stroke-linecap:round;stroke-miterlimit:10;}
	.st83{fill:none;stroke:#7C98B6;stroke-width:0.6995;stroke-linecap:round;stroke-miterlimit:10;}
	.st84{fill:none;stroke:#FFFFFF;stroke-width:0.6995;stroke-miterlimit:10;}
	.st85{fill:none;stroke:#7C98B6;stroke-width:0.5246;stroke-linecap:round;stroke-miterlimit:10;}
	.st86{fill:none;stroke:#FFFFFF;stroke-width:2.996;stroke-linecap:round;stroke-miterlimit:10;}
	.st87{fill:none;stroke:#FFFFFF;stroke-width:1.1191;stroke-linecap:round;stroke-miterlimit:10;}
	.st88{fill:none;stroke:#CBD6E2;stroke-width:1.5038;stroke-linecap:round;stroke-miterlimit:10;}
	.st89{fill:none;stroke:#FF7A59;stroke-width:0.373;stroke-miterlimit:10;}
	.st90{fill:none;stroke:#FF7A59;stroke-width:0.373;stroke-linecap:round;stroke-miterlimit:10;}
	.st91{fill:#EAF0F6;stroke:#7C98B6;stroke-width:0.8044;stroke-miterlimit:10;}
	.st92{fill:#FFCFB0;}
	.st93{fill:#EAF0F6;stroke:#CBD6E2;stroke-width:1.1237;stroke-miterlimit:10;}
	.st94{fill:#CBD6E2;stroke:#CBD6E2;stroke-width:1.1237;stroke-miterlimit:10;}
	.st95{fill:#FFFFFF;stroke:#CBD6E2;stroke-width:1.1237;stroke-miterlimit:10;}
	.st96{fill:#33475B;stroke:#CBD6E2;stroke-width:0.2809;stroke-miterlimit:10;}
	.st97{fill:#222221;}
	.st98{fill:none;}
	.st99{opacity:0.7;}
	.st100{fill:#6A78D1;stroke:#FFFFFF;stroke-width:0.221;stroke-miterlimit:10;}
	.st101{opacity:0.5;}
	.st102{opacity:0.6;}
	.st103{fill:none;stroke:#33475B;stroke-width:0.6282;stroke-miterlimit:10;}
	.st104{fill:none;stroke:#CBD6E2;stroke-width:0.3141;stroke-miterlimit:10;}
	.st105{fill:none;stroke:#CBD6E2;stroke-width:0.335;stroke-miterlimit:10;}
	.st106{fill:none;stroke:#00BDA5;stroke-width:0.335;stroke-miterlimit:10;}
	.st107{fill:none;stroke:#7C98B6;stroke-width:0.3245;stroke-miterlimit:10;}
	.st108{fill:none;stroke:#CBD6E2;stroke-width:0.3245;stroke-miterlimit:10;}
	.st109{fill:none;stroke:#33475B;stroke-width:0.6282;stroke-linecap:round;stroke-miterlimit:10;}
	.st110{fill:none;stroke:#FF7A59;stroke-width:0.3141;stroke-miterlimit:10;}
	.st111{fill:#EAF0F6;stroke:#CBD6E2;stroke-width:0.4711;stroke-miterlimit:10;}
	.st112{fill:none;stroke:#33475B;stroke-width:0.4711;stroke-miterlimit:10;}
	.st113{fill:none;stroke:#7C98B6;stroke-width:0.4711;stroke-miterlimit:10;}
	.st114{fill:none;stroke:#00BDA5;stroke-width:0.4711;stroke-miterlimit:10;}
	.st115{fill:none;stroke:#FF7A59;stroke-width:0.6282;stroke-linecap:round;stroke-miterlimit:10;}
	.st116{fill:none;stroke:#FFFFFF;stroke-width:0.6282;stroke-linecap:round;stroke-miterlimit:10;}
	.st117{fill:none;stroke:#CBD6E2;stroke-width:0.6282;stroke-linecap:round;stroke-miterlimit:10;}
	.st118{fill:none;stroke:#7C98B6;stroke-width:0.6282;stroke-linecap:round;stroke-miterlimit:10;}
	.st119{fill:none;stroke:#FFFFFF;stroke-width:0.6282;stroke-miterlimit:10;}
	.st120{fill:none;stroke:#7C98B6;stroke-width:0.4711;stroke-linecap:round;stroke-miterlimit:10;}
	.st121{fill:none;stroke:#FFFFFF;stroke-width:2.6906;stroke-linecap:round;stroke-miterlimit:10;}
	.st122{fill:none;stroke:#FFFFFF;stroke-width:1.005;stroke-linecap:round;stroke-miterlimit:10;}
	.st123{fill:none;stroke:#CBD6E2;stroke-width:1.3505;stroke-linecap:round;stroke-miterlimit:10;}
	.st124{fill:none;stroke:#FF7A59;stroke-width:0.335;stroke-miterlimit:10;}
	.st125{fill:none;stroke:#FF7A59;stroke-width:0.335;stroke-linecap:round;stroke-miterlimit:10;}
	.st126{fill:#F7C194;}
	.st127{fill:#EAAC7D;}
	.st128{fill:none;stroke:#CBD6E2;stroke-width:0.5;stroke-miterlimit:10;}
	.st129{fill:none;stroke:#FF7A59;stroke-width:0.5;stroke-miterlimit:10;}
	.st130{clip-path:url(#SVGID_11_);}
	.st131{clip-path:url(#SVGID_13_);}
	.st132{clip-path:url(#SVGID_15_);}
	.st133{fill:none;stroke:#253342;stroke-width:0.6335;stroke-miterlimit:10;}
	.st134{fill-rule:evenodd;clip-rule:evenodd;fill:#00A9FA;}
	.st135{fill:none;stroke:#00A9FA;stroke-width:0.4952;stroke-miterlimit:10;}
	.st136{fill:none;stroke:#00A9FA;stroke-width:0.9946;stroke-miterlimit:10;}
	.st137{fill:none;stroke:#7C98B6;stroke-width:0.8468;stroke-miterlimit:10;}
	.st138{fill:none;stroke:#33475B;stroke-width:1.1216;stroke-miterlimit:10;}
	.st139{fill:none;stroke:#33475B;stroke-width:1.2248;stroke-miterlimit:10;}
	.st140{fill:none;stroke:#33475B;stroke-width:1.3865;stroke-miterlimit:10;}
	.st141{fill:#FFB69F;}
	.st142{fill:#F79277;}
	.st143{fill:none;stroke:#00A9FA;stroke-width:2;stroke-miterlimit:10;}
	.st144{fill-rule:evenodd;clip-rule:evenodd;fill:none;stroke:#00A9FA;stroke-width:2;stroke-miterlimit:10;}
	.st145{fill:none;stroke:#00A9FA;stroke-width:0.8084;stroke-miterlimit:10;}
	.st146{fill:none;stroke:#00A9FA;stroke-width:1.5201;stroke-miterlimit:10;}
	.st147{fill:none;stroke:#33475B;stroke-width:2.0634;stroke-miterlimit:10;}
	.st148{fill:none;stroke:#FFFFFF;stroke-width:0.417;stroke-miterlimit:10;}
	.st149{fill:none;stroke:#FFFFFF;stroke-width:0.25;stroke-miterlimit:10;}
	.st150{fill:none;stroke:#FFFFFF;stroke-width:0.5;stroke-miterlimit:10;}
	.st151{fill:#EBEBEB;}
	.st152{fill:none;stroke:#00A9FA;stroke-width:2.5176;stroke-miterlimit:10;}
	.st153{fill-rule:evenodd;clip-rule:evenodd;fill:none;stroke:#00A9FA;stroke-width:2.5176;stroke-miterlimit:10;}
	.st154{fill:none;stroke:#00A9FA;stroke-width:1.0176;stroke-miterlimit:10;}
	.st155{fill:#EAF0F6;stroke:#CBD6E2;stroke-miterlimit:10;}
	.st156{fill:#F4A58C;}
	.st157{fill:#EF7E60;}
	.st158{fill:#B78876;}
	.st159{fill:#EFABA3;}
	.st160{fill:#E09A94;}
	.st161{fill:#6F4C47;}
	.st162{fill:#936760;}
	.st163{fill:none;stroke:#7C98B6;stroke-width:2.1267;stroke-miterlimit:10;}
	.st164{fill:none;stroke:#7C98B6;stroke-width:2;stroke-miterlimit:10;}
	.st165{fill:none;stroke:#7C98B6;stroke-width:1.5558;stroke-miterlimit:10;}
	.st166{fill:none;stroke:#7C98B6;stroke-width:2.2621;stroke-miterlimit:10;}
	.st167{fill:none;stroke:#7C98B6;stroke-width:2.1274;stroke-miterlimit:10;}
	.st168{fill:none;stroke:#7C98B6;stroke-width:1.6549;stroke-miterlimit:10;}
	.st169{clip-path:url(#SVGID_17_);}
	.st170{clip-path:url(#SVGID_19_);}
	.st171{fill:#FFD5BD;}
	.st172{fill:#FFB294;}
	.st173{clip-path:url(#SVGID_21_);fill:#203232;}
	.st174{clip-path:url(#SVGID_23_);fill:#203232;}
	.st175{clip-path:url(#SVGID_25_);fill:#203232;}
	.st176{clip-path:url(#SVGID_27_);fill:#203232;}
	.st177{clip-path:url(#SVGID_29_);fill:#203232;}
	.st178{clip-path:url(#SVGID_31_);fill:#203232;}
	.st179{clip-path:url(#SVGID_33_);fill:#203232;}
	.st180{clip-path:url(#SVGID_35_);fill:#203232;}
	.st181{clip-path:url(#SVGID_37_);fill:#203232;}
	.st182{clip-path:url(#SVGID_39_);fill:#203232;}
	.st183{clip-path:url(#SVGID_41_);fill:#203232;}
	.st184{clip-path:url(#SVGID_43_);fill:#203232;}
	.st185{clip-path:url(#SVGID_45_);fill:#203232;}
	.st186{clip-path:url(#SVGID_47_);fill:#203232;}
	.st187{clip-path:url(#SVGID_49_);fill:#203232;}
	.st188{clip-path:url(#SVGID_51_);fill:#203232;}
	.st189{clip-path:url(#SVGID_53_);fill:#203232;}
	.st190{clip-path:url(#SVGID_55_);fill:#203232;}
	.st191{clip-path:url(#SVGID_57_);fill:#203232;}
	.st192{clip-path:url(#SVGID_59_);fill:#203232;}
	.st193{clip-path:url(#SVGID_61_);fill:#203232;}
	.st194{clip-path:url(#SVGID_63_);fill:#203232;}
	.st195{clip-path:url(#SVGID_65_);fill:#203232;}
	.st196{clip-path:url(#SVGID_67_);fill:#203232;}
	.st197{clip-path:url(#SVGID_69_);fill:#203232;}
	.st198{clip-path:url(#SVGID_71_);fill:#203232;}
	.st199{fill:#995037;}
	.st200{clip-path:url(#SVGID_73_);fill:#203232;}
	.st201{clip-path:url(#SVGID_75_);fill:#203232;}
	.st202{clip-path:url(#SVGID_77_);fill:#203232;}
	.st203{clip-path:url(#SVGID_79_);fill:#203232;}
	.st204{clip-path:url(#SVGID_81_);fill:#203232;}
	.st205{clip-path:url(#SVGID_83_);fill:#203232;}
	.st206{clip-path:url(#SVGID_85_);fill:#203232;}
	.st207{clip-path:url(#SVGID_87_);fill:#203232;}
	.st208{clip-path:url(#SVGID_89_);fill:#203232;}
	.st209{clip-path:url(#SVGID_91_);fill:#203232;}
	.st210{clip-path:url(#SVGID_93_);fill:#203232;}
	.st211{clip-path:url(#SVGID_95_);fill:#203232;}
	.st212{clip-path:url(#SVGID_97_);fill:#203232;}
	.st213{fill:none;stroke:#00A9FA;stroke-width:0.5868;stroke-miterlimit:10;}
	.st214{fill:#FFFFFF;stroke:#33475B;stroke-miterlimit:10;}
	.st215{fill:none;stroke:#7C98B6;stroke-width:1.7119;stroke-miterlimit:10;}
	.st216{fill:#FFFFFF;stroke:#33475B;stroke-width:1.0993;stroke-miterlimit:10;}
	.st217{fill-rule:evenodd;clip-rule:evenodd;fill:#7C98B6;}
	.st218{fill-rule:evenodd;clip-rule:evenodd;fill:#253342;}
	.st219{fill:#FFA488;}
	.st220{fill:#EA846C;}
	.st221{fill:#F7B69A;}
	.st222{fill:#ED8A66;}
	.st223{fill:#AE7461;}
	.st224{fill:#6F4439;}
	.st225{fill:#F4A18E;}
	.st226{fill:#8B5D54;}
	.st227{fill:none;stroke:#00A9FA;stroke-width:1.6422;stroke-miterlimit:10;}
	.st228{fill:none;stroke:#7C98B6;stroke-width:0.75;stroke-miterlimit:10;}
	.st229{clip-path:url(#SVGID_99_);}
	.st230{fill:#FFFFFF;stroke:#7C98B6;stroke-width:1.1493;stroke-miterlimit:10;}
	.st231{fill:#BF6E65;}
	.st232{fill:#8B4A41;}
	.st233{fill:#EFAD9A;}
	.st234{fill:none;stroke:#263238;stroke-width:0.5;stroke-miterlimit:10;}
	.st235{fill:#00A9FA;stroke:#CBD6E2;stroke-width:0.2482;stroke-miterlimit:10;}
	.st236{fill:#D1734A;}
	.st237{fill:#F29379;}
	.st238{fill:#7C3B29;}
	.st239{fill:none;stroke:#7C98B6;stroke-miterlimit:10;}
	.st240{fill:#EAB1A2;}
	.st241{fill:#826A63;}
	.st242{fill:none;stroke:#7C98B6;stroke-width:0.25;stroke-miterlimit:10;}
	.st243{fill:#F9AF9B;}
	.st244{fill:#ED9A8C;}
	.st245{fill:#DD857A;}
	.st246{opacity:0.53;}
	.st247{opacity:0.67;}
	.st248{fill:#1A2E35;}
	.st249{fill:#E1E1E1;}
	.st250{fill:#FFC19D;}
	.st251{fill:#FF9C6A;}
	.st252{fill:#375A64;}
	.st253{fill:none;stroke:#1A2E35;stroke-width:0.12;stroke-miterlimit:10;}
	.st254{fill:none;stroke:#000000;stroke-width:0.12;stroke-miterlimit:10;}
	.st255{fill:none;stroke:#7C98B6;stroke-width:2.355;stroke-miterlimit:10;}
	.st256{fill:none;stroke:#7C98B6;stroke-width:1.832;stroke-miterlimit:10;}
	.st257{fill:#FFFFFF;stroke:#253342;stroke-width:0.682;stroke-miterlimit:10;}
	.st258{fill:#FFFFFF;stroke:#253342;stroke-width:1.032;stroke-miterlimit:10;}
	.st259{fill:#FFFFFF;stroke:#253342;stroke-width:0.6483;stroke-miterlimit:10;}
	.st260{fill:none;stroke:#00A9FA;stroke-width:0.6258;stroke-miterlimit:10;}
	.st261{fill:none;stroke:#00A9FA;stroke-width:0.9469;stroke-miterlimit:10;}
	.st262{fill:none;stroke:#00A9FA;stroke-width:0.9274;stroke-miterlimit:10;}
	.st263{fill:none;stroke:#00A9FA;stroke-miterlimit:10;}
	.st264{fill:none;stroke:#00A9FA;stroke-width:0.5615;stroke-miterlimit:10;}
	.st265{fill:none;stroke:#00A9FA;stroke-width:0.5;stroke-miterlimit:10;}
	.st266{fill:none;stroke:#FFFFFF;stroke-width:0.75;stroke-miterlimit:10;}
	.st267{fill:none;stroke:#263238;stroke-width:0.75;stroke-miterlimit:10;}
	.st268{fill:#1A252D;stroke:#263238;stroke-width:0.12;stroke-miterlimit:10;}
	.st269{fill:#FFFFFF;stroke:#00A9FA;stroke-width:0.12;stroke-miterlimit:10;}
	.st270{fill:none;stroke:#00A9FA;stroke-width:9.3327;stroke-miterlimit:10;}
	.st271{fill:none;stroke:#00A9FA;stroke-width:0.7744;stroke-miterlimit:10;}
	.st272{fill:#EA9B86;}
	.st273{fill:#DB7D6A;}
	.st274{fill:none;stroke:#263238;stroke-miterlimit:10;}
	.st275{fill:#FFFFFF;stroke:#33475B;stroke-width:1.0397;stroke-miterlimit:10;}
	.st276{fill:#FCFCFC;}
	.st277{fill:#F29F86;}
	.st278{fill:#E07646;}
	.st279{fill:#B77153;}
	.st280{fill-rule:evenodd;clip-rule:evenodd;fill:#33475B;}
	.st281{opacity:0.2;}
	.st282{fill:#F9B88C;}
	.st283{fill:#724A44;}
	.st284{fill:#EFAC7F;}
	.st285{fill:#EA9F6C;}
</style>
<rect x="-0.1" y="0.6" class="st2" width="750" height="420"/>
<g id="freepik--background-complete--inject-35">
	<rect x="181.3" y="80.5" class="st37" width="122.1" height="81.8"/>
	<path class="st11" d="M303.5,162.3c0,0,0-0.5,0-1.5s0-2.4,0-4.3c0-3.8,0-9.3,0-16.4c0-14.2,0-34.6-0.1-59.5l0.2,0.2H181.5l0,0
		l0.2-0.2c0,29.1,0,56.8,0,81.8l-0.2-0.2l88,0.1l25.1,0.1h6.7h1.7h0.6h-2.3h-6.7l-25.1,0l-88.1,0.1h-0.2v-0.2c0-24.9,0-52.7,0-81.8
		v-0.2h0.2h122.1h0.2v0.2c0,24.9-0.1,45.4-0.1,59.6c0,7.1,0,12.6,0,16.4c0,1.9,0,3.3,0,4.3S303.5,162.3,303.5,162.3z"/>
	<path class="st11" d="M181.3,87.8c0-0.1,27.3-0.2,61-0.2s61,0.1,61,0.2c0,0.1-27.3,0.2-61,0.2S181.3,87.9,181.3,87.8z"/>
	<g class="st52">
		<path class="st47" d="M186.2,84.1c0,0.5-0.4,1-1,1c-0.5,0-1-0.4-1-1s0.4-1,1-1C185.7,83.2,186.2,83.6,186.2,84.1z"/>
	</g>
	<g class="st52">
		<circle class="st47" cx="188.5" cy="84.1" r="1"/>
	</g>
	<g class="st52">
		<path class="st47" d="M192.8,84.1c0,0.5-0.4,1-1,1s-1-0.4-1-1s0.4-1,1-1S192.8,83.6,192.8,84.1z"/>
	</g>
	<rect x="191.8" y="96.4" class="st11" width="32.6" height="32.6"/>
	<path class="st11" d="M286.7,105.6c0,0.1-12.7,0.2-28.4,0.2c-15.7,0-28.4-0.1-28.4-0.2c0-0.1,12.7-0.2,28.4-0.2
		C274.1,105.3,286.7,105.5,286.7,105.6z"/>
	<path class="st11" d="M286.7,111.6c0,0.1-12.7,0.2-28.4,0.2c-15.7,0-28.4-0.1-28.4-0.2s12.7-0.2,28.4-0.2
		C274.1,111.4,286.7,111.5,286.7,111.6z"/>
	<path class="st11" d="M286.7,117.7c0,0.1-12.7,0.2-28.4,0.2c-15.7,0-28.4-0.1-28.4-0.2c0-0.1,12.7-0.2,28.4-0.2
		C274.1,117.5,286.7,117.5,286.7,117.7z"/>
	<path class="st11" d="M263.5,123.7c-0.4,0.1-0.9,0.1-1.3,0.1l-3.6,0.1c-3,0-7.2,0.1-11.9,0.1s-8.8,0-11.9-0.1l-3.6-0.1
		c-0.4,0-0.9,0-1.3-0.1c0.4-0.1,0.9-0.1,1.3-0.1l3.6-0.1c3,0,7.2-0.1,11.9-0.1c4.6,0,8.8,0,11.9,0.1l3.6,0.1
		C262.7,123.6,263.1,123.7,263.5,123.7z"/>
	<rect x="193.9" y="139.9" class="st11" width="15.3" height="15.3"/>
	<rect x="221.7" y="139.9" class="st11" width="15.3" height="15.3"/>
	<rect x="249.4" y="139.9" class="st11" width="15.3" height="15.3"/>
	<rect x="277.2" y="139.9" class="st11" width="15.3" height="15.3"/>
	<path class="st98" d="M521.7,112.2c-0.7,0.9-1.5,1.8-2.4,2.5l0.6,3.2L515,120l-1.9-2.6c-1.2,0.2-2.3,0.2-3.5,0.1l-1.8,2.7l-5-1.9
		l0.5-3.2c-0.9-0.7-1.8-1.5-2.5-2.4l-3.2,0.6l-2.2-4.9l2.6-1.9c-0.2-1.2-0.2-2.3-0.1-3.5l-2.7-1.8l2-5l3.2,0.5
		c0.7-0.9,1.5-1.8,2.4-2.5l-0.6-3.2l4.9-2.2l1.9,2.6c1.2-0.2,2.3-0.2,3.5-0.1l1.8-2.7l5,1.9l-0.5,3.2c0.9,0.7,1.8,1.5,2.5,2.4
		l3.2-0.6l2.2,4.9l-2.6,1.9c0.2,1.2,0.2,2.3,0.1,3.5l2.7,1.8l-1.9,5L521.7,112.2L521.7,112.2z M516.2,106.7c1.1-3-0.3-6.3-3.3-7.4
		c-3-1.1-6.3,0.3-7.4,3.3c-1.1,3,0.3,6.3,3.3,7.4C511.8,111.2,515.1,109.7,516.2,106.7C516.2,106.8,516.3,106.7,516.2,106.7
		L516.2,106.7z"/>
	<path class="st11" d="M516.3,106.7c-0.1,0.5-0.3,0.9-0.6,1.3c-1.3,1.9-3.6,2.8-5.8,2.4c-1-0.2-2-0.6-2.8-1.3
		c-0.4-0.4-0.8-0.8-1.1-1.3c-0.3-0.5-0.6-1-0.7-1.6c-0.3-1.2-0.3-2.5,0.2-3.7c0.5-1.2,1.3-2.2,2.3-2.8c0.5-0.3,1-0.6,1.6-0.7
		c0.5-0.2,1.1-0.2,1.7-0.2c2,0.1,3.8,1.1,4.9,2.9c0.7,1.1,1,2.5,0.8,3.8C516.6,105.9,516.5,106.3,516.3,106.7c0,0,0.2-0.4,0.3-1.3
		c0.1-1.3-0.2-2.5-0.8-3.6c-1-1.6-2.8-2.6-4.7-2.6c-0.5,0-1.1,0.1-1.6,0.2c-3,0.8-4.7,3.9-3.9,6.8c0.1,0.5,0.4,1.1,0.7,1.5
		c0.3,0.5,0.6,0.9,1,1.2c1.4,1.3,3.4,1.7,5.2,1.2c1.2-0.3,2.3-1.1,3.1-2.1C515.8,107.6,516,107.1,516.3,106.7z"/>
	<path class="st11" d="M521.7,112.2h0.2l0.6,0.1l2.4,0.3h-0.1c0.5-1.3,1.1-3,1.9-5v0.1l-2.7-1.8h-0.1v-0.1c0.1-1.2,0.1-2.3-0.1-3.5
		v-0.1h0.1l2.6-1.9v0.1l-2.2-4.9l0.1,0.1l-3.2,0.6h-0.1l-0.1-0.1c-0.7-0.9-1.6-1.7-2.5-2.4l-0.1-0.1v-0.1c0.1-1,0.3-2.1,0.5-3.2
		l0.1,0.2l-5-1.9l0.2-0.1l-1.8,2.7l-0.1,0.1h-0.1c-1.1-0.1-2.3-0.1-3.4,0.1h-0.1l-0.1-0.1l-1.9-2.6h0.2l-4.9,2.2l0.1-0.2
		c0.2,1,0.4,2.1,0.6,3.2v0.1l-0.1,0.1c-0.9,0.7-1.7,1.6-2.4,2.5l0,0l-0.2,0.1h-0.1H500h-0.2l-0.4-0.1l-0.8-0.1l-1.6-0.2l0.2-0.1
		l-1.8,5l-0.1-0.2l2.7,1.8l0.1,0.1v0.1c-0.1,1.1-0.1,2.3,0.1,3.4v0.1l-0.1,0.1l-2.6,1.9l0.1-0.2c0.7,1.7,1.4,3.3,2.2,4.9l-0.2-0.1
		l3.2-0.6h0.1l0.1,0.1c0.7,0.9,1.6,1.7,2.5,2.4l0.1,0.1v0.1c-0.2,1.1-0.3,2.2-0.5,3.2l-0.1-0.1l5,1.9l-0.2,0l1.8-2.7v-0.1h0.1
		c1.1,0.1,2.3,0.1,3.5-0.1h0.1v0.1l1.9,2.6h-0.1l4.9-2.1v0.1c-0.2-1.3-0.4-2.3-0.6-3.2l0,0l0,0c0.7-0.5,1.3-1.1,1.9-1.8l0.4-0.5
		L521.7,112.2l-0.1,0.3c-0.1,0.1-0.2,0.3-0.4,0.5c-0.5,0.7-1.1,1.3-1.8,1.9v-0.1c0.2,0.9,0.4,1.9,0.6,3.2v0h-0.1l-4.9,2.2H515
		l-0.1-0.1l-1.9-2.6l0.1,0c-1.2,0.2-2.3,0.2-3.5,0.1l0.1-0.1l-1.8,2.7l-0.1,0.1h-0.1l-5-1.9h-0.1v-0.1c0.2-1,0.3-2.1,0.5-3.2
		l0.1,0.1c-1-0.7-1.8-1.5-2.6-2.4l0.1,0.1l-3.2,0.6h-0.1l-0.1-0.1l-2.2-4.9l-0.1-0.1l0.1-0.1l2.6-1.9l-0.1,0.1
		c-0.2-1.2-0.2-2.4-0.1-3.5l0.1,0.2l-2.7-1.8l-0.1-0.1v-0.1l1.9-5l0-0.1h0.1l1.6,0.2l0.8,0.1l0.4,0.1h0.2h0.1h0.1
		c-0.3,0.1-0.1,0-0.2,0.1l0,0c0.7-0.9,1.6-1.8,2.5-2.5l-0.1,0.2c-0.2-1.1-0.4-2.2-0.6-3.2v-0.1l0.1-0.1l4.9-2.2l0.1-0.1l0.1,0.1
		c0.7,0.9,1.3,1.8,1.9,2.6l-0.2-0.1c1.2-0.2,2.4-0.2,3.5-0.1l-0.2,0.1l1.8-2.7l0.1-0.1h0.1l5,1.9h0.1v0.1c-0.2,1.1-0.3,2.2-0.5,3.2
		l-0.1-0.1c1,0.7,1.8,1.5,2.5,2.4l-0.1-0.1l3.2-0.6h0.1l0,0.1c0.8,1.7,1.5,3.4,2.2,4.9v0.1l-0.1,0.1l-2.6,1.9l0-0.1
		c0.2,1.2,0.2,2.3,0.1,3.5l0-0.1l2.7,1.8h0.1v0.1l-2,5v0l0,0l-2.4-0.4l-0.6-0.1L521.7,112.2z"/>
	<path class="st59" d="M550.1,96.9c-0.6,0.8-1.2,1.5-2,2.1l0.5,2.6l-4,1.8l-1.6-2.2c-1,0.2-1.9,0.2-2.9,0.1l-1.5,2.2l-4.1-1.6
		l0.4-2.6c-0.8-0.6-1.5-1.2-2.1-2l-2.6,0.5l-1.8-4l2.2-1.6c-0.2-1-0.2-1.9-0.1-2.9l-2.2-1.5l1.6-4.1l2.6,0.4c0.6-0.8,1.2-1.5,2-2.1
		l-0.5-2.6l4-1.8l1.6,2.2c1-0.2,1.9-0.2,2.9-0.1l1.5-2.2l4.1,1.6l-0.4,2.6c0.8,0.6,1.5,1.2,2.1,2l2.6-0.5l1.8,4.1l-2.2,1.6
		c0.2,1,0.2,1.9,0.1,2.9l2.2,1.5l-1.6,4.1L550.1,96.9L550.1,96.9z M545.6,92.4c1-2.5-0.3-5.2-2.7-6.2c-2.5-1-5.2,0.3-6.2,2.7
		c-1,2.5,0.3,5.2,2.7,6.2c0,0,0,0,0,0C541.9,96.1,544.7,94.9,545.6,92.4C545.6,92.4,545.6,92.4,545.6,92.4L545.6,92.4z"/>
	<path class="st59" d="M532.6,72.2c-0.9,1.2-1.9,2.3-3.1,3.3l0.8,4.1l-6.3,2.8l-2.5-3.4c-1.5,0.2-3,0.3-4.5,0.1l-2.3,3.5l-6.5-2.5
		l0.6-4.2c-1.2-0.9-2.3-1.9-3.3-3.1l-4.1,0.8l-2.8-6.3l3.4-2.5c-0.2-1.5-0.3-3-0.1-4.5l-3.5-2.3l2.5-6.5l4.2,0.6
		c0.9-1.2,1.9-2.4,3.1-3.3l-0.8-4.1l6.3-2.8l2.5,3.4c1.5-0.2,3-0.3,4.5-0.1l2.3-3.5l6.5,2.5l-0.6,4.2c1.2,0.9,2.3,1.9,3.3,3.1
		l4.1-0.8l2.8,6.3l-3.4,2.5c0.2,1.5,0.3,3,0.1,4.5l3.5,2.4l-2.5,6.5L532.6,72.2L532.6,72.2z M525.6,65.1c1.5-3.8-0.4-8.2-4.3-9.7
		c-3.8-1.5-8.2,0.4-9.7,4.3c-1.5,3.8,0.4,8.2,4.3,9.7c0,0,0,0,0,0C519.8,70.9,524.1,69,525.6,65.1C525.6,65.1,525.6,65.1,525.6,65.1
		z"/>
	<path class="st11" d="M468.8,37.8c0.1-0.2,0.3-0.4,0.5-0.5l1.4-1.4c1.2-1.2,2.8-2.7,4.6-4.5h0v0.2c-1.8-1.7-3.5-3.2-4.6-4.4
		l-1.4-1.3c-0.2-0.2-0.3-0.3-0.5-0.5c0.2,0.1,0.4,0.3,0.6,0.4l1.5,1.3c1.2,1.1,2.9,2.6,4.7,4.3l0.1,0.1l-0.1,0.1l0,0
		c-1.8,1.7-3.5,3.3-4.7,4.4l-1.4,1.3C469.2,37.5,469,37.6,468.8,37.8z"/>
	<path class="st11" d="M454.7,25.3c-0.1,0.2-0.3,0.4-0.5,0.5l-1.3,1.4c-1.2,1.2-2.8,2.7-4.6,4.5l0,0v-0.2c1.8,1.7,3.5,3.2,4.6,4.4
		l1.4,1.4c0.2,0.2,0.3,0.3,0.5,0.5c-0.2-0.1-0.4-0.3-0.6-0.4c-0.4-0.3-0.9-0.8-1.5-1.3c-1.2-1.1-2.9-2.6-4.7-4.3l-0.1-0.1l0.1-0.1h0
		c1.8-1.7,3.5-3.3,4.7-4.4l1.4-1.3C454.3,25.6,454.5,25.5,454.7,25.3z"/>
	<path class="st11" d="M458.3,40.7c-0.1,0,1.4-4.2,3.3-9.3c1.9-5.1,3.5-9.2,3.6-9.2c0.1,0-1.4,4.2-3.3,9.3S458.4,40.7,458.3,40.7z"
		/>
	<path class="st11" d="M484.9,49.6c0,0,0-0.2,0-0.7c0-0.5,0-1.1,0-2c0-1.8,0-4.3,0-7.6c0-6.5,0-15.9-0.1-27.1l0.1,0.1H439l0,0
		l0.2-0.2c0,13.5,0,26.3,0,37.4l-0.1-0.1l33.1,0.1h9.4h2.5h-2.4l-9.4,0L439,49.6h-0.1v-0.1c0-11.1,0-23.9,0-37.4v-0.2h0.2h45.9h0.1
		V12c0,11.3-0.1,20.6-0.1,27.2c0,3.3,0,5.8,0,7.6c0,0.9,0,1.5,0,2C485,49.2,484.9,49.6,484.9,49.6z"/>
	<path class="st11" d="M485.2,17.8c0,0.1-10.4,0.2-23.1,0.2s-23.1-0.1-23.1-0.2s10.4-0.2,23.1-0.2C474.9,17.6,485.2,17.7,485.2,17.8
		z"/>
	<path class="st11" d="M442.7,15c0,0.3-0.3,0.6-0.6,0.6l0,0c-0.3,0-0.6-0.3-0.6-0.6c0-0.3,0.3-0.6,0.6-0.6
		C442.4,14.4,442.7,14.7,442.7,15L442.7,15z"/>
	<circle class="st11" cx="444.3" cy="15" r="0.6"/>
	<path class="st11" d="M447.2,15c0,0.3-0.3,0.6-0.6,0.6c-0.3,0-0.6-0.3-0.6-0.6c0-0.3,0.3-0.6,0.6-0.6
		C446.9,14.4,447.2,14.7,447.2,15L447.2,15z"/>
	<rect x="290" y="30.2" class="st37" width="106.1" height="43.1"/>
	<path class="st11" d="M396.1,73.3c0,0,0-0.3,0-0.8c0-0.5,0-1.3,0-2.2c0-2,0-4.9,0-8.6c0-7.4,0-18.2-0.1-31.5l0.1,0.1l-106.1,0.1
		l0,0l0.1-0.2v43.1l-0.2-0.2l76.1,0.1l22.1,0h5.9l0,0h-5.9h-22L290,73.3h-0.2v-0.2c0-13.4,0-28,0-43.1v-0.2h0.2h106.1h0.1v0.3
		c0,13.4,0,24.1-0.1,31.6c0,3.7,0,6.6,0,8.6c0,1,0,1.7,0,2.2C396.1,73.1,396.1,73.3,396.1,73.3z"/>
	<path class="st11" d="M290.2,36.1c0-0.1,23.7-0.2,53-0.2c29.3,0,53,0.1,53,0.2s-23.7,0.2-53,0.2C313.9,36.2,290.2,36.2,290.2,36.1z
		"/>
	<g class="st52">
		<path class="st151" d="M294.6,33.5c0,0.4-0.3,0.8-0.8,0.8l0,0c-0.4,0-0.8-0.3-0.8-0.8c0-0.4,0.3-0.8,0.8-0.8
			C294.2,32.7,294.6,33,294.6,33.5C294.6,33.5,294.6,33.5,294.6,33.5z"/>
	</g>
	<g class="st52">
		<path class="st151" d="M297.2,33.5c0,0.4-0.3,0.8-0.8,0.8l0,0c-0.4,0-0.8-0.3-0.8-0.8c0-0.4,0.3-0.8,0.8-0.8
			C296.9,32.7,297.2,33,297.2,33.5C297.2,33.5,297.2,33.5,297.2,33.5z"/>
	</g>
	<g class="st52">
		<circle class="st151" cx="299" cy="33.5" r="0.8"/>
	</g>
	<rect x="299" y="43.1" class="st11" width="25.6" height="25.6"/>
	<path class="st11" d="M388.8,49.9c0,0.1-13.2,0.2-29.5,0.2c-16.3,0-29.5-0.1-29.5-0.2s13.2-0.2,29.5-0.2
		C375.6,49.8,388.8,49.8,388.8,49.9z"/>
	<path class="st11" d="M388.8,55.2c0,0.1-13.2,0.2-29.5,0.2c-16.3,0-29.5-0.1-29.5-0.2c0-0.1,13.2-0.2,29.5-0.2
		C375.6,55,388.8,55.1,388.8,55.2z"/>
	<path class="st11" d="M367.8,60.4c-0.1,0-0.3,0-0.4,0h-1.1l-4.1,0.1l-13.4,0.1l-13.4-0.1l-4.1-0.1h-1.1c-0.1,0-0.3,0-0.4,0
		c0.1,0,0.3,0,0.4,0h1.1l4.1-0.1h13.4h13.4l4.1,0.1h1.1C367.6,60.4,367.7,60.4,367.8,60.4z"/>
</g>
<g id="freepik--Floor--inject-35_1_">
	<path class="st22" d="M577.1,384.6c0,0.1-90.2,0.2-201.4,0.2s-201.5-0.1-201.5-0.2s90.2-0.2,201.5-0.2S577.1,384.5,577.1,384.6z"/>
</g>
<g id="freepik--Screens--inject-35">
	<rect x="416.6" y="113.1" class="st37" width="152.9" height="111.2"/>
	<path class="st36" d="M569.4,224.3c0,0,0-0.7,0-2s0-3.3,0-5.9c0-5.2,0-12.8-0.1-22.5c0-19.4-0.1-47.2-0.1-80.6l0.2,0.2H416.6l0,0
		l0.3-0.2c0,40.2,0,78.2,0,111.2l-0.3-0.2l110.5,0.1l31.3,0.1h8.3h2.1h0.7h-2.8h-8.2l-31.2,0.1l-110.6,0.1h-0.2v-0.2
		c0-33,0-71,0-111.2v-0.2h0.3h152.9h0.2v0.2c-0.1,33.5-0.1,61.4-0.1,80.8c0,9.7-0.1,17.3-0.1,22.5c0,2.6,0,4.6,0,5.9
		S569.4,224.3,569.4,224.3z"/>
	<path class="st36" d="M568.5,122.5c0,0.1-34.1,0.3-76.1,0.3s-76.1-0.1-76.1-0.3s34.1-0.3,76.1-0.3S568.5,122.4,568.5,122.5z"/>
	<path class="st36" d="M426.7,117.5c0,0.5-0.4,0.9-0.9,0.9c-0.5,0-0.9-0.4-0.9-0.9c0-0.5,0.4-0.9,0.9-0.9
		C426.3,116.7,426.7,117,426.7,117.5z"/>
	<ellipse class="st36" cx="429.4" cy="117.5" rx="0.9" ry="0.9"/>
	<path class="st36" d="M434,117.5c0,0.5-0.4,0.9-0.9,0.9s-1-0.4-1-0.9c0-0.5,0.4-0.9,0.9-0.9c0,0,0,0,0,0
		C433.6,116.7,434,117,434,117.5z"/>
	<path class="st36" d="M426.8,225.3c-0.1,0-0.3-23.1-0.3-51.5s0.1-51.6,0.3-51.6c0.1,0,0.3,23.1,0.3,51.6S426.9,225.3,426.8,225.3z"
		/>
	<rect x="192.4" y="30.2" class="st25" width="56.2" height="40.1"/>
	<path class="st2" d="M249.1,36.2c0,0.1-12.7,0.2-28.3,0.2s-28.4-0.1-28.4-0.2s12.7-0.2,28.4-0.2S249.1,36,249.1,36.2z"/>
	<path class="st2" d="M197,33.3c0.1,0.4-0.2,0.8-0.7,0.9s-0.8-0.2-0.9-0.7c-0.1-0.4,0.2-0.8,0.7-0.9c0,0,0.1,0,0.1,0
		C196.6,32.6,197,32.9,197,33.3C197,33.3,197,33.3,197,33.3z"/>
	<path class="st2" d="M199.8,33.3c0,0.4-0.4,0.7-0.7,0.7c0,0,0,0,0,0c-0.4,0-0.6-0.4-0.6-0.7c0-0.4,0.4-0.6,0.7-0.6
		C199.5,32.6,199.8,32.9,199.8,33.3z"/>
	<ellipse class="st2" cx="201.8" cy="33.2" rx="0.8" ry="0.7"/>
	<rect x="571.5" y="193.6" class="st25" width="50.8" height="36.2"/>
	<path class="st37" d="M622.7,199c0,0.1-11.5,0.2-25.6,0.2s-25.6-0.1-25.6-0.2s11.5-0.2,25.6-0.2S622.7,198.9,622.7,199z"/>
	<path class="st37" d="M575.6,196.3c-0.1,0.4-0.4,0.6-0.8,0.6c-0.3,0-0.5-0.3-0.6-0.6c0.1-0.4,0.4-0.6,0.8-0.6
		C575.3,195.8,575.6,196,575.6,196.3z"/>
	<path class="st37" d="M578.1,196.3c-0.1,0.4-0.4,0.6-0.8,0.6c-0.3,0-0.5-0.3-0.6-0.6c0.1-0.4,0.4-0.6,0.8-0.6
		C577.8,195.8,578.1,196,578.1,196.3z"/>
	<path class="st37" d="M580.6,196.3c0.1,0.4-0.2,0.7-0.6,0.8s-0.7-0.2-0.8-0.6c-0.1-0.4,0.2-0.7,0.6-0.8c0,0,0.1,0,0.1,0
		C580.3,195.7,580.6,196,580.6,196.3z"/>
	<rect x="165.4" y="183" class="st25" width="37.5" height="26.7"/>
	<path class="st2" d="M203.2,186.9c0,0.1-8.5,0.1-18.9,0.1s-18.9-0.1-18.9-0.1s8.5-0.1,18.9-0.1S203.2,186.8,203.2,186.9z"/>
	<path class="st2" d="M168.5,185c0,0.3-0.2,0.5-0.5,0.4c-0.3,0-0.5-0.2-0.5-0.4c0,0,0,0,0,0c0-0.3,0.2-0.5,0.5-0.4c0,0,0,0,0,0
		C168.2,184.5,168.5,184.7,168.5,185C168.5,185,168.5,185,168.5,185z"/>
	<path class="st2" d="M170.3,185c0,0.3-0.3,0.5-0.6,0.4c-0.2,0-0.4-0.2-0.4-0.4c0-0.3,0.3-0.5,0.6-0.4
		C170.1,184.6,170.3,184.7,170.3,185z"/>
	<path class="st2" d="M172.2,185c0,0.3-0.2,0.5-0.4,0.6s-0.5-0.2-0.6-0.4c0-0.3,0.2-0.5,0.4-0.6c0,0,0,0,0.1,0
		C171.9,184.5,172.1,184.7,172.2,185z"/>
	<path class="st25" d="M413.7,72c-0.1-3.9,3-7.1,6.9-7.1c0.1,0,0.2,0,0.4,0c1.9-0.1,3.7,0.6,5,1.9l-0.6,0.7
		c-1.1-1.1-2.7-1.7-4.3-1.7c-3.4-0.2-6.3,2.4-6.5,5.8c-0.2,3.4,2.4,6.3,5.8,6.5c0.2,0,0.5,0,0.7,0c1.6,0,3.2-0.6,4.3-1.7l0.6,0.7
		c-1.3,1.3-3.1,2-5,2c-3.9,0.1-7.1-2.9-7.3-6.7C413.7,72.2,413.7,72.1,413.7,72z"/>
	<path class="st25" d="M427.8,77.2l0.5-0.8c1.3,1.2,2.9,1.8,4.6,1.8c2.8,0,4.1-1.2,4.1-2.8c0-4.2-8.8-1.7-8.8-6.9c0-2,1.5-3.7,5-3.7
		c1.5,0,3,0.4,4.2,1.3L437,67c-1.1-0.8-2.5-1.2-3.9-1.2c-2.7,0-3.9,1.3-3.9,2.8c0,4.2,8.8,1.7,8.8,6.8c0,2-1.6,3.7-5.1,3.7
		C431.1,79.2,429.2,78.5,427.8,77.2z"/>
	<path class="st25" d="M440.1,77.2l0.5-0.8c1.3,1.2,2.9,1.8,4.6,1.8c2.8,0,4.1-1.2,4.1-2.8c0-4.2-8.8-1.7-8.8-6.9c0-2,1.5-3.7,5-3.7
		c1.5,0,3,0.4,4.2,1.3l-0.4,0.8c-1.1-0.8-2.5-1.2-3.9-1.2c-2.7,0-4,1.3-4,2.8c0,4.2,8.8,1.7,8.8,6.8c0,2-1.6,3.7-5.1,3.7
		C443.3,79.2,441.4,78.5,440.1,77.2z"/>
	<path class="st25" d="M462.2,90.3c0,0,0-0.3,0-0.7c0-0.5,0-1.2,0-2.1c0-1.9,0-4.6-0.1-8.1c0-7-0.1-17.1-0.1-29.4l0.2,0.2h-62.5l0,0
		l0.2-0.2c0,14.3,0,28,0,40.4l-0.2-0.2l45,0.1l12.9,0.1h3.4h0.9l0,0h-0.9h-3.4l-12.8,0.1l-45.1,0.1h-0.2v-0.2c0-12.3,0-26,0-40.4v0
		h0.3l62.5,0.1h0.2v0.2c0,12.3-0.1,22.5-0.1,29.5c0,3.5,0,6.2,0,8.1c0,0.9,0,1.6,0,2.1C462.3,90.1,462.2,90.3,462.2,90.3z"/>
	<path class="st25" d="M462.2,55.9c0,0.1-14,0.2-31.3,0.2s-31.3-0.1-31.3-0.2s14.1-0.3,31.3-0.3C448.2,55.6,462.2,55.8,462.2,55.9z"
		/>
	<path class="st25" d="M404.3,52.9c0.1,0.4-0.2,0.8-0.7,0.9c-0.4,0.1-0.8-0.2-0.9-0.7c-0.1-0.4,0.2-0.8,0.7-0.9c0,0,0.1,0,0.1,0
		C403.9,52.3,404.3,52.5,404.3,52.9C404.3,52.9,404.3,52.9,404.3,52.9z"/>
	<path class="st25" d="M407.1,52.9c0.1,0.4-0.2,0.8-0.7,0.9c-0.4,0.1-0.8-0.2-0.9-0.7c-0.1-0.4,0.2-0.8,0.7-0.9c0,0,0.1,0,0.1,0
		C406.7,52.3,407,52.5,407.1,52.9C407.1,52.9,407.1,52.9,407.1,52.9z"/>
	<path class="st25" d="M409.8,52.9c0.1,0.4-0.2,0.8-0.7,0.9c-0.4,0.1-0.8-0.2-0.9-0.7c-0.1-0.4,0.2-0.8,0.7-0.9c0,0,0.1,0,0.1,0
		C409.4,52.3,409.8,52.5,409.8,52.9C409.8,52.9,409.8,52.9,409.8,52.9z"/>
</g>
<g id="freepik--Character--inject-35_1_">
	<path class="st36" d="M283.4,228.2l23.6,79.7c1,3.5,4.3,6,8,6l95.8,0.3c4.9,0,8.9-3.9,8.9-8.8c0-0.2,0-0.3,0-0.5l0,0
		c-0.3-4.7-4.1-8.4-8.8-8.4h-36.6l-29.3-81.7h-51.4c-5.8,0-10.5,4.7-10.5,10.5C282.9,226.2,283.1,227.2,283.4,228.2z"/>
	<path class="st22" d="M364.4,302.9c0,0.2-9.8,0.3-21.8,0.3c-12,0-21.8-0.1-21.8-0.3s9.8-0.3,21.8-0.3
		C354.7,302.6,364.4,302.7,364.4,302.9z"/>
	<path class="st22" d="M290.4,217.1c0.2-0.1,6.7,19,14.6,42.6c7.9,23.6,14.1,42.8,13.9,42.8c-0.2,0.1-6.7-19-14.6-42.6
		S290.2,217.2,290.4,217.1z"/>
	<polygon class="st19" points="360.5,384.6 354.6,384.5 354.6,313.8 360.5,313.8 	"/>
	<polygon class="st19" points="330.4,384.3 384.7,384.3 360.1,375.7 354.3,375.7 	"/>
	<path class="st25" d="M316.6,196.3l9,44.9l-1.6,33.7l60.5-10.1l-2.4-29.5L382,211l14.8,28.7l11.5-22.3l-21.1-38.3l0,0
		c-3.8-4-8.6-7.1-13.8-8.9c-2.8-1-5.7-1.6-8.7-1.7l0,0c-6.8,2.2-14.1,2.2-20.9,0c-0.8,0.1-2,0.2-3.5,0.4H340
		c-12.8,1.6-22.7,12.2-23.3,25.1L316.6,196.3z"/>
	<path class="st25" d="M340.3,168.9c0,0-24.8,0.2-27.9,26.4l-0.4,19.3l21.4-0.2L340.3,168.9z"/>
	<path class="st23" d="M399.7,202.7c0,0.2-19.5,0.3-43.7,0.3s-43.6-0.2-43.6-0.3s19.5-0.3,43.7-0.3S399.7,202.5,399.7,202.7z"/>
	<path class="st23" d="M399.7,206.8c0,0.2-19.5,0.3-43.7,0.3s-43.7-0.2-43.7-0.3s19.5-0.3,43.7-0.3S399.7,206.7,399.7,206.8z"/>
	<path class="st23" d="M398.3,199.2c0,0.2-19.2,0.3-42.9,0.3c-23.7,0-42.9-0.2-42.9-0.3s19.2-0.3,43-0.3S398.3,199.1,398.3,199.2z"
		/>
	<path class="st22" d="M381.7,239.7c-0.2,0-0.1-10.6,0.2-23.7c0.3-13.1,0.7-23.7,0.9-23.7c0.2,0,0.1,10.6-0.2,23.7
		S381.9,239.7,381.7,239.7z"/>
	<path class="st20" d="M373.2,222.5c0,0,11.8,0.8,13.9,4c2.1,3.1,5.3,12,4.1,12c-0.8,0-1.5-0.2-2.1-0.7l-3.2-5.7
		c0,0,0.5,5.5-1.4,5.6c-1.9,0.1-11.5,2-11.5,2L373.2,222.5z"/>
	<path class="st25" d="M312,209.5l0,30.3c0.3,6.3,5.8,11.2,12.1,10.9c0.6,0,1.2-0.1,1.8-0.2l47.4-9.8l-0.1-19.4l-40.9,7.9l-0.5-20.6
		L312,209.5z"/>
	<path class="st22" d="M339,248c0.2-0.1,0.4-0.1,0.6-0.2l1.8-0.4l7-1.5l24.7-5.1l-0.2,0.3c0-6.1,0-12.8,0-20l0.4,0.3l-8.3,1.6
		l-32.5,6.2l-0.4,0.1v-0.3c0.3-9,0.6-16.5,0.8-21.8c0.1-2.6,0.2-4.6,0.3-6.1c0-0.7,0.1-1.2,0.1-1.6c0-0.2,0-0.4,0.1-0.6
		c0,0.2,0,0.4,0,0.6c0,0.4,0,0.9,0,1.6c0,1.5-0.1,3.5-0.1,6.1c-0.1,5.3-0.3,12.8-0.5,21.8l-0.3-0.3l32.5-6.3l8.3-1.6l0.4-0.1v0.4
		c0,7.1,0,13.9,0,20v0.3l-0.2,0l-24.7,4.8l-7,1.3l-1.9,0.3C339.5,247.9,339.3,248,339,248z"/>
	<path class="st22" d="M366.2,168.9c0,0,0.1,0.1,0.2,0.4c0.2,0.4,0.3,0.9,0.4,1.3c0.3,1.7,0.3,3.4-0.2,5.1c-0.7,2.5-2.2,4.7-4.1,6.3
		c-2.4,2.1-5.4,3.3-8.6,3.3c-3.2,0.1-6.3-1.2-8.5-3.5c-1.8-1.9-2.9-4.3-3.2-6.9c-0.2-1.7,0-3.5,0.6-5.1c0.2-0.4,0.4-0.9,0.6-1.2
		c0.2-0.3,0.3-0.4,0.3-0.4c0,0-0.3,0.6-0.6,1.7c-0.5,1.6-0.6,3.3-0.4,4.9c0.3,2.4,1.4,4.7,3.1,6.5c2.2,2.1,5.1,3.3,8.1,3.2
		c3,0,5.9-1.1,8.2-3c1.9-1.6,3.3-3.7,4.1-6c0.5-1.6,0.6-3.3,0.4-4.9C366.4,169.6,366.1,168.9,366.2,168.9z"/>
	<path class="st23" d="M368.5,242.2c-0.1-1-0.1-2,0-3c0.1-1.8,0.2-4.4,0.2-7.2c0-2.8,0-5.3-0.1-7.2c-0.1-1-0.1-2,0-3
		c0.3,1,0.4,2,0.5,3c0.2,1.8,0.3,4.4,0.3,7.2c0,2.8-0.2,5.4-0.4,7.2C368.9,240.3,368.8,241.3,368.5,242.2z"/>
	<path class="st23" d="M366,242.7c-0.1-1-0.2-2-0.1-3c0-2.1,0-4.5,0.1-7.1v-7.2c-0.1-1,0-2,0.1-3c0.2,1,0.4,2,0.4,2.9
		c0.1,1.8,0.2,4.4,0.2,7.2c0,2.8-0.1,5.3-0.3,7.2C366.4,240.8,366.3,241.8,366,242.7z"/>
	<path class="st36" d="M413.5,363.1l8.9,24.7l12.7,17.5c0.9,1.2,0.6,2.9-0.6,3.8c0,0-0.1,0.1-0.1,0.1l0,0c-0.7,0.5-1.6,0.5-2.4,0.2
		c-5.1-2.1-23.9-10-24.5-11.9c-0.6-2.1-12.8-28.7-12.8-28.7L413.5,363.1z"/>
	<g class="st102">
		<path class="st37" d="M408.8,385.9c0.8,0.2,1.3,1,1.2,1.8c-0.2,0.8-1,1.3-1.8,1.2c-0.9-0.2-1.4-1.1-1.2-1.9c0.3-0.8,1.2-1.3,2-1"
			/>
	</g>
	<path class="st22" d="M424.7,400.5c0.3-1,0.8-1.9,1.4-2.7c1.1-1.3,2.6-1.5,2.6-1.6c0-0.2-0.4-0.1-1,0c-1.6,0.4-2.8,1.8-3.1,3.4
		C424.5,400.2,424.6,400.5,424.7,400.5z"/>
	<path class="st22" d="M427.7,403.1c0.2,0.1,0.6-1,1.8-1.9c0.7-0.5,1.5-0.9,2.3-1.2c0-0.2-1.4-0.2-2.6,0.8
		C427.8,401.8,427.5,403.1,427.7,403.1z"/>
	<path class="st22" d="M419.8,397.6c0.2,0.1,0.9-1.6,2.5-3.1c1.6-1.5,3.4-2.1,3.3-2.3c-0.1-0.2-2,0.2-3.7,1.8
		C420.2,395.6,419.6,397.6,419.8,397.6z"/>
	<path class="st22" d="M416.4,390.3c0.1,0.1,1.2-1,3-1.7c1.7-0.8,3.3-0.9,3.3-1c0-0.1-1.7-0.3-3.5,0.5
		C417.3,388.9,416.4,390.3,416.4,390.3z"/>
	<path class="st22" d="M413.7,383.2c0.1,0.1,1.2-1.2,3.1-1.9c1.9-0.6,3.5-0.3,3.6-0.4c0-0.2-0.4-0.3-1.1-0.4c-1.8-0.2-3.7,0.4-5,1.7
		C413.8,382.7,413.6,383.1,413.7,383.2z"/>
	<path class="st22" d="M416.1,380c0-0.3-0.2-0.6-0.3-0.9c-0.4-0.8-1-1.5-1.7-2.1c-0.5-0.5-1.1-0.8-1.8-0.9c-0.5,0-0.9,0.2-1,0.7
		c-0.2,0.4-0.2,0.8,0,1.2c0.8,1.7,2.6,2.6,4.4,2.1c1.7-0.5,3-1.9,3.2-3.7c0.1-0.4-0.1-0.9-0.4-1.2c-0.3-0.3-0.8-0.4-1.2-0.1
		c-0.5,0.4-1,0.9-1.3,1.5c-0.4,0.8-0.8,1.7-0.9,2.5c-0.1,0.3-0.1,0.7,0,1c0.3-1.2,0.7-2.3,1.3-3.3c0.3-0.5,0.7-0.9,1.1-1.2
		c0.2-0.1,0.5-0.1,0.7,0.1c0.2,0.2,0.3,0.5,0.2,0.8c-0.2,1.5-1.3,2.8-2.8,3.2c-1.5,0.4-3-0.3-3.7-1.7c-0.1-0.3-0.2-0.6-0.1-0.9
		c0.1-0.2,0.3-0.4,0.6-0.4c0.6,0.1,1.1,0.3,1.5,0.7C414.8,378,415.6,378.9,416.1,380z"/>
	<path class="st36" d="M451.3,356.6l-0.8,20c0,0,20.1,7.5,20.3,11.2l-38.9-0.1l-0.1-31.3L451.3,356.6z"/>
	<g class="st102">
		<path class="st37" d="M438.5,374.9c-0.8,0.2-1.2,1-1.1,1.8c0.2,0.8,1,1.3,1.8,1.1c0.8-0.3,1.3-1.1,1.2-1.9c-0.3-0.8-1.2-1.2-2-0.9
			"/>
	</g>
	<path class="st22" d="M451.1,376.5c0,0.2-0.9,0.3-1.9,0.9c-0.9,0.6-1.4,1.4-1.6,1.3c-0.2-0.1,0.1-1.2,1.3-1.9
		C450.1,376.1,451.2,376.3,451.1,376.5z"/>
	<path class="st22" d="M455.2,378.2c0,0.2-0.8,0.5-1.4,1.3c-0.7,0.8-0.8,1.7-1,1.6c-0.2,0-0.3-1.1,0.5-2.1
		C454.1,378.1,455.2,378,455.2,378.2z"/>
	<path class="st22" d="M457.5,383.1c-0.2,0-0.4-0.9,0.1-1.9c0.5-1,1.4-1.5,1.5-1.3c0.1,0.2-0.5,0.7-0.9,1.6
		C457.7,382.3,457.7,383,457.5,383.1z"/>
	<path class="st22" d="M450.8,371.9c-0.1,0.2-0.9-0.1-2,0s-1.9,0.4-2,0.2c-0.1-0.2,0.7-0.8,2-0.9C450,371.2,450.9,371.7,450.8,371.9
		z"/>
	<g class="st52">
		<polygon points="451.1,360.6 451,364.2 431.9,363.9 431.9,360.7 		"/>
	</g>
	<path class="st22" d="M450.9,367.8c-0.6,0.2-1.3,0.2-2,0c-0.7-0.1-1.4-0.3-2-0.6c-0.4-0.2-0.8-0.4-1.1-0.6
		c-0.2-0.1-0.4-0.3-0.6-0.5c-0.3-0.3-0.3-0.7-0.1-1c0.2-0.3,0.5-0.4,0.8-0.4c0.2,0,0.5,0,0.7,0.1c0.4,0.1,0.8,0.2,1.2,0.4
		c0.7,0.3,1.3,0.7,1.8,1.2c0.9,0.8,1.2,1.5,1.1,1.6c-0.1,0-0.5-0.5-1.4-1.2c-0.5-0.4-1.1-0.7-1.7-1c-0.4-0.1-0.7-0.3-1.1-0.3
		c-0.4-0.1-0.8-0.1-0.9,0.1c-0.1,0.2,0,0.1,0,0.2c0.1,0.1,0.3,0.2,0.4,0.3c0.3,0.2,0.7,0.4,1,0.6c0.6,0.3,1.2,0.5,1.9,0.7
		C449.6,367.5,450.3,367.6,450.9,367.8z"/>
	<path class="st22" d="M450.6,368.1c-0.4-0.6-0.5-1.2-0.5-1.9c0-0.7,0.1-1.4,0.3-2.1c0.1-0.4,0.3-0.8,0.5-1.2c0.2-0.5,0.7-0.9,1.2-1
		c0.4,0,0.7,0.2,0.8,0.5c0.1,0.2,0.2,0.5,0.2,0.7c0.1,0.4,0.1,0.9,0,1.3c-0.1,0.7-0.4,1.4-0.8,2c-0.8,1-1.6,1.2-1.6,1.2
		c0-0.1,0.6-0.5,1.2-1.4c0.3-0.5,0.6-1.2,0.6-1.8c0.1-0.4,0.1-0.8,0-1.1c-0.1-0.4-0.2-0.7-0.4-0.7s-0.5,0.3-0.7,0.6
		c-0.2,0.3-0.4,0.7-0.5,1c-0.2,0.6-0.3,1.3-0.4,1.9C450.6,367.4,450.8,368.1,450.6,368.1z"/>
	<path class="st18" d="M431.9,260.6c-23,2.4-53.5,5.5-53.5,5.5l4.2,37.4c0,0,44.8-11.8,44.4-10.8c-0.3,1,2.1,79.6,2.1,79.6h27
		l0.5-89.1c0.2-12.4-9.7-22.5-22.1-22.7C433.7,260.4,432.8,260.5,431.9,260.6z"/>
	<path class="st18" d="M323.4,275.7v11.6c0,7.9,9,16.3,16.9,16.3h6.1c4.8,0,12.3-3.5,16.3-6.3l2.3-1.7l28.1,87
		c0,0,32.1-5.8,32.1-6.8c0-1-21.7-71.2-31.8-103.8c-4.1-13.3-18.4-21-31.5-16.5c-0.4,0.2-0.9,0.3-1.3,0.5
		C346.1,261.6,323.4,275.7,323.4,275.7z"/>
	<path class="st43" d="M425.2,375.7c-0.1-0.1-0.1-0.2-0.1-0.3c-0.1-0.2-0.2-0.6-0.4-0.9c-0.3-0.8-0.8-2-1.3-3.6
		c-1.1-3.1-2.5-7.7-4.3-13.4c-3.6-11.3-8.4-27-13.6-44.4c-2.6-8.7-5.1-17-7.3-24.5c-1.1-3.8-2.2-7.3-3.2-10.7
		c-0.5-1.7-1-3.3-1.4-4.8c-0.4-1.5-0.9-3-1.5-4.4c-1-2.4-2.6-4.6-4.5-6.4c-1.5-1.4-3.1-2.6-4.8-3.7c-1.4-0.9-2.5-1.6-3.2-2.1
		l-0.8-0.5c-0.1-0.1-0.2-0.1-0.3-0.2c0.1,0,0.2,0.1,0.3,0.1l0.9,0.5c0.8,0.4,1.9,1.1,3.3,2c1.7,1.1,3.3,2.3,4.9,3.6
		c2,1.8,3.7,4,4.7,6.5c0.6,1.5,1.1,2.9,1.5,4.4c0.5,1.5,1,3.2,1.5,4.8l3.2,10.7c2.3,7.5,4.8,15.8,7.4,24.5
		c5.2,17.3,9.9,33,13.4,44.4l4.1,13.4l1.2,3.6c0.1,0.4,0.2,0.7,0.3,0.9S425.2,375.7,425.2,375.7z"/>
	<path class="st43" d="M432,281.4c0.2,0.1-1.4,2.4-2.6,5.5c-1.3,3.1-1.9,5.8-2.1,5.8c-0.2,0,0.1-2.8,1.4-6
		C430.1,283.5,431.8,281.3,432,281.4z"/>
	<path class="st43" d="M437.2,285c0.1,0.2-2.2,1.2-4.7,3.1c-2.4,1.9-4,3.9-4.1,3.8c-0.2-0.1,1.2-2.4,3.7-4.3
		C434.6,285.6,437.1,284.8,437.2,285z"/>
	<path class="st43" d="M393.4,382.5c-0.2,0.1-7.8-23.2-16.9-52c-9.2-28.8-16.5-52.1-16.3-52.2c0.2-0.1,7.8,23.2,16.9,52
		S393.6,382.4,393.4,382.5z"/>
	<polygon class="st36" points="358.9,246.8 450.8,247.7 468,199.2 401.1,199.7 385.6,243.2 358.9,243.6 	"/>
	<path class="st37" d="M428.6,227.6c-2-0.3-3.5-2.2-3.2-4.2c0.3-2,2.2-3.5,4.2-3.2c2,0.3,3.5,2.2,3.2,4.2c0,0,0,0,0,0
		C432.5,226.5,430.6,227.9,428.6,227.6z"/>
	<path class="st22" d="M351.4,115.7c0.9-3.2,3.3-4.8,6.5-5.9c3.2-1.1,6.8-0.5,9.5,1.5c1.8,1.4,3.2,3.3,5.3,4
		c3.5,1.2,7.5-1.4,10.8,0.2c2.4,1.1,3.4,3.9,2.3,6.3c-0.8,1.8-2.6,2.9-4.6,2.8c2.3,0.8,3,4.1,1.6,6.1c-1.3,2-4,2.8-6.4,2.3
		c-2.4-0.6-4.5-1.8-6.2-3.5c-1.8-1.6-3.4-3.4-5.3-4.9c-1.9-1.6-4.2-2.4-6.7-2.4c-3.3,0.2-6.1,2.6-7.5,5.6s-1.8,6.3-2,9.5
		c-0.2,3.3-0.2,6.6-1.2,9.7c-0.1,0.4-0.3,0.8-0.7,0.9c-0.5,0.2-1-0.4-1.2-0.9c-3-5.5-4.8-11.6-5.5-17.8c-0.4-3.6-0.3-7,1.7-10.1
		S349,113.8,351.4,115.7"/>
	<path class="st20" d="M345.1,130.8l-1.7,36.6c-0.3,6.2,0.6,15.4,10.4,15.4l0,0c8.6-0.7,11.1-8.6,11.3-14.5c0.1-2.7,0.2-5,0.3-5.3
		c0,0,9.3-0.5,10.4-9.6c0.5-4.4,0.9-13.7,1.1-22c0.2-9-6.5-16.6-15.4-17.6l-0.9-0.1C351.1,113.3,345.3,121.2,345.1,130.8z"/>
	<path class="st42" d="M365.5,162.9c-4.3-0.4-8.3-2-11.6-4.7c0,0,2.1,6.9,11.4,7.1L365.5,162.9z"/>
	<path class="st22" d="M373.7,137.2c-0.1,0.7-0.7,1.2-1.4,1.2c-0.7,0-1.2-0.6-1.2-1.3c0,0,0,0,0,0c0.1-0.7,0.7-1.2,1.4-1.2
		C373.1,135.9,373.7,136.5,373.7,137.2C373.7,137.2,373.7,137.2,373.7,137.2z"/>
	<path class="st22" d="M374.6,135.7c-0.2,0.2-1.1-0.7-2.5-0.8s-2.5,0.5-2.7,0.3s0.1-0.4,0.6-0.7c0.7-0.4,1.4-0.5,2.2-0.4
		c0.7,0.1,1.4,0.4,2,0.9C374.5,135.3,374.6,135.6,374.6,135.7z"/>
	<path class="st22" d="M359.8,136.3c-0.1,0.7-0.7,1.2-1.4,1.2c-0.7,0-1.3-0.6-1.2-1.3c0,0,0,0,0,0c0.1-0.7,0.7-1.2,1.4-1.2
		C359.2,134.9,359.8,135.5,359.8,136.3C359.8,136.2,359.8,136.2,359.8,136.3z"/>
	<path class="st22" d="M360.6,134.5c-0.2,0.2-1.1-0.7-2.5-0.8c-1.4-0.2-2.5,0.5-2.7,0.3c-0.1-0.2,0.1-0.4,0.6-0.7
		c0.7-0.4,1.4-0.5,2.2-0.4c0.7,0.1,1.4,0.4,2,0.9C360.6,134.1,360.7,134.4,360.6,134.5z"/>
	<path class="st22" d="M364.6,145.5c0.8-0.2,1.6-0.2,2.3-0.2c0.4,0,0.7,0,0.8-0.3c0.1-0.4,0-0.8-0.1-1.1c-0.3-0.9-0.5-1.9-0.8-2.9
		c-1.1-4.1-1.8-7.4-1.6-7.4c0.2,0,1.2,3.2,2.2,7.3c0.3,1,0.5,2,0.7,2.9c0.2,0.5,0.2,1,0,1.4c-0.1,0.2-0.4,0.4-0.6,0.5
		c-0.2,0-0.4,0-0.6,0C366.2,145.7,365.4,145.7,364.6,145.5z"/>
	<path class="st22" d="M360.4,146c0.2,0,0.1,1.5,1.3,2.8c1.2,1.2,2.8,1.2,2.8,1.4c0,0.2-0.4,0.3-1.1,0.2c-0.9-0.1-1.7-0.5-2.4-1.1
		c-0.6-0.6-1-1.4-1-2.3C360.1,146.4,360.3,146,360.4,146z"/>
	<path class="st22" d="M361.6,129c-0.2,0.4-1.6,0-3.3,0.1s-3.1,0.3-3.3,0c-0.1-0.2,0.2-0.5,0.8-0.8c1.6-0.8,3.4-0.8,5,0
		C361.4,128.5,361.7,128.8,361.6,129z"/>
	<path class="st22" d="M374.5,131.5c-0.3,0.3-1.2-0.1-2.4-0.3s-2.2,0-2.4-0.4c-0.1-0.2,0.1-0.5,0.6-0.7c0.6-0.3,1.3-0.4,2-0.3
		c0.7,0.1,1.3,0.4,1.8,0.8C374.5,131,374.6,131.4,374.5,131.5z"/>
	<path class="st20" d="M345.2,137.7c-0.2-0.1-6.1-2.5-6.6,3.8c-0.5,6.3,6,5.5,6,5.3S345.2,137.7,345.2,137.7z"/>
	<path class="st42" d="M342.8,144.2c0,0-0.1,0.1-0.3,0.1c-0.3,0.1-0.6,0.1-0.8,0c-0.8-0.6-1.2-1.6-1.1-2.5c0-0.5,0.2-1.1,0.4-1.5
		c0.2-0.4,0.5-0.7,0.9-0.8c0.3,0,0.5,0.1,0.6,0.4c0.1,0.2,0,0.3,0.1,0.3c0.1,0,0.1-0.1,0.1-0.4c0-0.2-0.1-0.3-0.2-0.4
		c-0.2-0.1-0.4-0.2-0.6-0.2c-0.5,0.1-1,0.4-1.2,0.9c-0.3,0.5-0.5,1.1-0.5,1.7c-0.1,1.3,0.5,2.5,1.4,2.8c0.3,0.1,0.7,0.1,1-0.1
		C342.8,144.4,342.8,144.2,342.8,144.2z"/>
	<path class="st22" d="M379.2,129.6c-4.2,0.6-8.5-0.8-11.5-3.9c-2-2.1-3.5-5-6.2-6.2c-1.9-0.7-4-0.7-5.8,0.2c-1.8,0.8-3.4,2-4.8,3.5
		c1.3,4.9-0.5,9.9-2.2,14.7c-0.1,0.5-0.5,1-0.9,1.4c-0.8,0.5-1.9-0.1-2.4-0.8c-0.8-1.3-1.3-2.8-1.3-4.3c-0.3-3.4,0.1-6.9,1.1-10.2
		c1.1-3.3,3.1-6.2,5.8-8.4c3.5-2.6,7.9-3.7,12.2-3.1c4.3,0.6,8.3,2.5,11.4,5.5c1.5,1.3,2.7,3,3.4,4.9"/>
</g>
<g id="freepik--Devices--inject-35">
	<polygon class="st18" points="503.8,159.1 486.6,231.1 491.4,231.1 508.3,159.1 	"/>
	<path class="st18" d="M497.2,206.5c-0.3,1.3,7.8,40.6,7.8,40.6h-3.9l-6.1-31.1L497.2,206.5z"/>
	<rect x="473.9" y="299" class="st36" width="80.7" height="85.5"/>
	<rect x="554.5" y="311.5" class="st22" width="4" height="4"/>
	<rect x="554.5" y="324" class="st22" width="4" height="4"/>
	<rect x="554.5" y="336.6" class="st22" width="4" height="4"/>
	<rect x="554.5" y="349.2" class="st22" width="4" height="4"/>
	<path class="st22" d="M558.6,337.8c0.4-0.1,0.8-0.2,1.2-0.3c1.1-0.2,2.3-0.3,3.4-0.3c1.7,0,3.4,0.4,4.9,1.3
		c1.9,1.1,2.9,3.2,2.7,5.4c-0.1,1.1-0.4,2.2-1,3.1c-0.5,0.9-1.3,1.6-2.1,2.2c-1.4,1-3,1.6-4.7,1.9c-1.1,0.2-2.3,0.2-3.4,0.1
		c-0.4,0-0.8-0.1-1.2-0.2c0.4,0,0.8,0,1.2,0c1.1,0,2.2-0.1,3.4-0.3c1.6-0.3,3.2-0.9,4.5-1.9c1.6-1.2,2.7-3,2.9-5c0.2-2-0.8-4-2.5-5
		c-1.4-0.9-3-1.3-4.7-1.3c-1.1,0-2.2,0-3.4,0.2C559.4,337.8,559,337.8,558.6,337.8z"/>
	<path class="st22" d="M557.6,325.3c0.1-0.1,0.2-0.2,0.4-0.2c0.4-0.2,0.8-0.3,1.2-0.5c1.5-0.5,3.1-0.6,4.6-0.3
		c0.5,0.1,1,0.3,1.5,0.6c0.5,0.3,0.9,0.8,1,1.4c0.4,2-0.7,4.1-2.6,4.8c-0.7,0.3-1.5,0.2-2.2-0.1c-0.7-0.4-1.2-1.1-1.3-1.9
		c0-0.8,0.5-1.6,1.3-2c0.7-0.3,1.5-0.4,2.3-0.2c0.7,0.2,1.4,0.5,2,1c1.1,0.9,1.8,2.2,2,3.6c0.1,1.3-0.2,2.6-1,3.6
		c-0.7,0.9-1.5,1.6-2.5,2.1c-1.4,0.7-2.9,1.1-4.5,1.2c-0.5,0-1,0.1-1.3,0.1c-0.1,0-0.3,0-0.4,0c0,0,0.6-0.1,1.7-0.2
		c1.5-0.2,3-0.6,4.4-1.3c0.9-0.5,1.7-1.2,2.3-2c0.7-0.9,1-2.1,0.9-3.3c-0.2-1.3-0.8-2.5-1.9-3.3c-0.5-0.4-1.1-0.7-1.8-0.9
		c-0.7-0.2-1.4-0.1-2,0.2c-0.6,0.3-1,0.9-1,1.5c0,0.6,0.4,1.2,1,1.5c0.6,0.3,1.2,0.3,1.8,0.1c0.6-0.2,1.1-0.6,1.5-1.1
		c0.8-0.9,1.1-2.1,0.9-3.2c-0.3-1-1.2-1.7-2.2-1.8c-1.5-0.3-3-0.3-4.5,0.1C558.2,325,557.6,325.3,557.6,325.3z"/>
	<path class="st22" d="M557.7,313c0.3-0.1,0.6-0.2,0.9-0.2c0.8-0.1,1.6,0,2.4,0.3c1.2,0.4,2.2,1.1,3,2c1,1.2,1.5,2.6,1.6,4.2
		c0.1,1.5-0.4,3-1.3,4.2c-0.8,1-1.8,1.8-2.9,2.2c-0.8,0.3-1.6,0.5-2.4,0.5c-0.3,0-0.6,0-0.9-0.1c1.1,0,2.1-0.3,3.1-0.7
		c1.1-0.5,2-1.2,2.7-2.2c1.7-2.4,1.6-5.6-0.2-7.9c-0.7-0.9-1.7-1.6-2.8-2C559.8,313.1,558.7,313,557.7,313z"/>
	<path class="st22" d="M497.8,253.5c0.3,0.5,0.5,1,0.7,1.6c0.5,1.6,0.8,3.2,1.1,4.9c0.3,2.1,0.6,4.8,0.9,7.8c0.3,3,0.5,6.5,1,10.4
		c0.1,0.9,0.3,1.9,0.5,2.9c0.2,1,0.5,2,0.9,2.9c0.5,0.9,1.2,1.7,2,2.4c2.5,2.4,5.7,3.9,9.1,4.2c2.4,0.3,4.9-0.1,7.1-1.2
		c2.3-1.1,4-3.3,4.6-5.8c0.3-1.3,0.2-2.6-0.3-3.8c-0.5-1.2-1.4-2.3-2.5-3c-1.1-0.8-2.5-1.2-3.8-1.3c-1.4-0.1-2.7,0.3-3.9,1.1
		c-0.6,0.4-1,0.9-1.3,1.5c-0.3,0.6-0.4,1.3-0.3,2c0.3,1.4,1.2,2.5,2.5,3.2c1.3,0.6,2.7,1,4.1,1.1c1.4,0.2,2.9,0.3,4.3,0.3
		c2.8,0,5.6-0.1,8.4-0.5c5.5-0.6,10.8-1.5,15.9-1.6c5.1-0.1,10.1,0.7,14.2,2.7c2,1,3.8,2.3,5.3,4c1.3,1.5,2.3,3.4,2.7,5.4
		c0.7,3.5,0.2,7.1-1.6,10.2c-1.3,2.3-3.2,4.3-5.4,5.7c-1.4,0.9-2.9,1.7-4.4,2.3c-0.5,0.2-1.1,0.4-1.7,0.5l0.4-0.2
		c0.3-0.1,0.7-0.2,1.2-0.4c1.5-0.6,3-1.4,4.4-2.3c2.2-1.5,3.9-3.4,5.2-5.7c1.7-3,2.2-6.6,1.5-9.9c-0.4-2-1.4-3.8-2.7-5.3
		c-1.5-1.6-3.2-2.9-5.2-3.8c-4.1-2-9-2.7-14-2.6c-5.1,0.1-10.4,0.9-15.9,1.6c-2.8,0.3-5.6,0.5-8.5,0.5c-1.5,0-2.9-0.1-4.3-0.3
		c-1.5-0.1-2.9-0.5-4.3-1.2c-1.4-0.7-2.4-2-2.7-3.5c-0.1-0.8,0-1.6,0.3-2.3c0.3-0.7,0.8-1.3,1.5-1.7c1.2-0.9,2.7-1.3,4.2-1.2
		c1.5,0.1,2.9,0.5,4.1,1.4c1.2,0.8,2.1,1.9,2.7,3.2c0.5,1.3,0.6,2.7,0.3,4.1c-0.6,2.6-2.4,4.9-4.8,6.1c-2.3,1.1-4.8,1.6-7.4,1.3
		c-2.4-0.2-4.7-1-6.7-2.3c-1-0.6-1.9-1.3-2.7-2.1c-0.8-0.7-1.5-1.6-2-2.5c-0.4-1-0.7-2-0.9-3c-0.2-1-0.3-2-0.5-2.9
		c-0.5-3.8-0.7-7.3-1-10.4s-0.5-5.7-0.8-7.8c-0.2-1.6-0.5-3.3-1-4.9c-0.1-0.4-0.3-0.8-0.4-1.2C497.9,253.9,497.8,253.7,497.8,253.5z
		"/>
	<path class="st22" d="M549.9,380.9c0,0,0-0.1,0-0.4s0-0.6,0-1.1c0-1,0-2.4,0-4.2c0-3.7,0-9.1-0.1-16c0-13.8-0.1-33.4-0.1-56.8
		l0.2,0.2h-72.9l0,0l0.2-0.2c0,28.9,0,55.9,0,78.6l-0.2-0.2l52.8,0.1l14.8,0.1h3.9L549.9,380.9l-1.2-0.1l-4,0.1L530,381l-53,0.1
		h-0.2v-0.2c0-22.7,0-49.7,0-78.6v-0.2h0.2h72.9h0.2v0.2c0,23.5-0.1,43.2-0.1,56.9c0,6.9,0,12.3-0.1,16c0,1.8,0,3.2,0,4.2
		c0,0.5,0,0.8,0,1.1C550,380.7,549.9,380.9,549.9,380.9z"/>
	<path class="st22" d="M529.4,312c0,0.2-0.2,0.4-0.4,0.4c0,0,0,0,0,0c-0.2,0-0.4-0.1-0.4-0.3c0-0.2,0.1-0.4,0.3-0.4c0,0,0.1,0,0.1,0
		C529.2,311.6,529.4,311.8,529.4,312z"/>
	<path class="st22" d="M531.4,312c0,0.2-0.2,0.4-0.4,0.4c0,0,0,0,0,0c-0.2,0-0.4-0.1-0.4-0.3c0-0.2,0.1-0.4,0.3-0.4c0,0,0.1,0,0.1,0
		C531.3,311.6,531.4,311.8,531.4,312z"/>
	<path class="st22" d="M533.5,312c0,0.2-0.2,0.4-0.4,0.4c0,0,0,0,0,0c-0.2,0-0.4-0.1-0.4-0.3c0-0.2,0.1-0.4,0.3-0.4c0,0,0.1,0,0.1,0
		C533.3,311.6,533.5,311.8,533.5,312z"/>
	<path class="st22" d="M535.6,312c0,0.2-0.2,0.4-0.4,0.4c-0.2,0-0.4-0.2-0.4-0.4c0-0.2,0.2-0.4,0.4-0.4c0,0,0,0,0,0
		C535.4,311.6,535.6,311.8,535.6,312z"/>
	<path class="st22" d="M537.6,312c0,0.2-0.2,0.4-0.4,0.4h0c-0.2,0-0.3-0.2-0.3-0.4c0-0.2,0.2-0.3,0.3-0.3
		C537.5,311.6,537.6,311.8,537.6,312z"/>
	<path class="st22" d="M539.7,312c0,0.2-0.2,0.4-0.4,0.4l0,0c-0.2,0-0.3-0.2-0.3-0.4c0-0.2,0.2-0.3,0.3-0.3
		C539.5,311.6,539.7,311.8,539.7,312z"/>
	<path class="st22" d="M541.7,312c0,0.2-0.2,0.4-0.4,0.4l0,0c-0.2,0-0.3-0.2-0.3-0.4c0-0.2,0.2-0.3,0.3-0.3
		C541.6,311.6,541.7,311.8,541.7,312z"/>
	<circle class="st22" cx="540.4" cy="313.4" r="0.4"/>
	<circle class="st22" cx="538.3" cy="313.4" r="0.4"/>
	<path class="st22" d="M536.6,313.4c0,0.2-0.2,0.4-0.4,0.4l0,0c-0.2,0-0.4-0.2-0.4-0.4c0,0,0,0,0,0c0-0.2,0.2-0.4,0.4-0.4h0
		C536.4,313,536.6,313.2,536.6,313.4C536.6,313.4,536.6,313.4,536.6,313.4z"/>
	<circle class="st22" cx="534.1" cy="313.4" r="0.4"/>
	<circle class="st22" cx="532" cy="313.4" r="0.4"/>
	<path class="st22" d="M530.3,313.4c0,0.2-0.2,0.4-0.4,0.4c0,0,0,0,0,0c-0.2,0-0.4-0.2-0.4-0.4l0,0c0-0.2,0.2-0.4,0.4-0.4
		c0,0,0,0,0,0C530.1,313,530.3,313.2,530.3,313.4L530.3,313.4z"/>
	<path class="st22" d="M529.4,314.9c0,0.2-0.2,0.4-0.4,0.4l0,0c-0.2,0-0.4-0.2-0.4-0.4c0,0,0,0,0,0c0-0.2,0.2-0.4,0.4-0.4l0,0
		C529.2,314.6,529.4,314.7,529.4,314.9C529.4,314.9,529.4,314.9,529.4,314.9z"/>
	<path class="st22" d="M531.4,314.9c0,0.2-0.2,0.4-0.4,0.4l0,0c-0.2,0-0.4-0.2-0.4-0.4c0,0,0,0,0,0c0-0.2,0.2-0.4,0.4-0.4h0
		C531.3,314.6,531.4,314.7,531.4,314.9C531.4,314.9,531.4,314.9,531.4,314.9z"/>
	<path class="st22" d="M533.5,314.9c0,0.2-0.2,0.4-0.4,0.4l0,0c-0.2,0-0.4-0.2-0.4-0.4c0,0,0,0,0,0c0-0.2,0.2-0.4,0.4-0.4l0,0
		C533.3,314.6,533.5,314.7,533.5,314.9C533.5,314.9,533.5,314.9,533.5,314.9z"/>
	<path class="st22" d="M535.6,314.9c0,0.2-0.2,0.3-0.4,0.3c-0.2,0-0.3-0.2-0.3-0.3c0-0.2,0.1-0.4,0.3-0.4c0.2,0,0.4,0.1,0.4,0.3
		C535.6,314.9,535.6,314.9,535.6,314.9z"/>
	<path class="st22" d="M537.6,314.9c0,0.2-0.2,0.4-0.4,0.4c0,0,0,0,0,0c-0.2,0-0.4-0.2-0.4-0.4l0,0c0-0.2,0.2-0.4,0.4-0.4
		c0,0,0,0,0,0C537.5,314.6,537.6,314.7,537.6,314.9L537.6,314.9z"/>
	<path class="st22" d="M539.7,314.9c0,0.2-0.2,0.4-0.4,0.4c0,0,0,0,0,0c-0.2,0-0.4-0.2-0.4-0.4l0,0c0-0.2,0.2-0.4,0.4-0.4
		c0,0,0,0,0,0C539.5,314.6,539.7,314.7,539.7,314.9L539.7,314.9z"/>
	<path class="st22" d="M541.7,314.9c0,0.2-0.2,0.4-0.4,0.4c0,0,0,0,0,0c-0.2,0-0.4-0.2-0.4-0.4l0,0c0-0.2,0.2-0.4,0.4-0.4
		c0,0,0,0,0,0C541.6,314.6,541.7,314.7,541.7,314.9L541.7,314.9z"/>
	<path class="st22" d="M540.8,316.3c0,0.2-0.2,0.4-0.4,0.4h0c-0.2,0-0.4-0.2-0.4-0.4c0,0,0,0,0,0c0-0.2,0.2-0.4,0.4-0.4l0,0
		C540.6,316,540.8,316.1,540.8,316.3C540.8,316.3,540.8,316.3,540.8,316.3z"/>
	<path class="st22" d="M538.7,316.3c0,0.2-0.2,0.4-0.4,0.4c0,0,0,0,0,0c-0.2,0-0.4-0.2-0.4-0.4v0c0-0.2,0.2-0.4,0.4-0.4c0,0,0,0,0,0
		C538.5,316,538.7,316.1,538.7,316.3L538.7,316.3z"/>
	<path class="st22" d="M536.6,316.3c0,0.2-0.2,0.4-0.4,0.4c0,0,0,0,0,0c-0.2,0-0.4-0.2-0.4-0.4v0c0-0.2,0.2-0.4,0.4-0.4c0,0,0,0,0,0
		C536.4,316,536.6,316.1,536.6,316.3L536.6,316.3z"/>
	<path class="st22" d="M534.5,316.3c0,0.2-0.2,0.4-0.4,0.4c0,0,0,0,0,0c-0.2,0-0.4-0.2-0.4-0.4v0c0-0.2,0.2-0.4,0.4-0.4c0,0,0,0,0,0
		C534.3,316,534.5,316.1,534.5,316.3L534.5,316.3z"/>
	<path class="st22" d="M532.4,316.3c0,0.2-0.1,0.4-0.3,0.4c-0.2,0-0.4-0.1-0.4-0.3c0,0,0-0.1,0-0.1c0-0.2,0.2-0.3,0.4-0.3
		C532.2,316,532.3,316.2,532.4,316.3z"/>
	<path class="st22" d="M530.3,316.3c0,0.2-0.2,0.4-0.4,0.4h0c-0.2,0-0.4-0.2-0.4-0.4c0,0,0,0,0,0c0-0.2,0.2-0.4,0.4-0.4l0,0
		C530.1,316,530.3,316.1,530.3,316.3C530.3,316.3,530.3,316.3,530.3,316.3z"/>
	<path class="st22" d="M529.4,317.9c0,0.2-0.2,0.4-0.4,0.4c0,0,0,0,0,0c-0.2,0-0.4-0.2-0.4-0.4v0c0-0.2,0.2-0.4,0.4-0.4c0,0,0,0,0,0
		C529.2,317.5,529.4,317.7,529.4,317.9L529.4,317.9z"/>
	<path class="st22" d="M531.4,317.9c0,0.2-0.2,0.4-0.4,0.4c0,0,0,0,0,0c-0.2,0-0.4-0.2-0.4-0.4v0c0-0.2,0.2-0.4,0.4-0.4c0,0,0,0,0,0
		C531.3,317.5,531.4,317.7,531.4,317.9L531.4,317.9z"/>
	<path class="st22" d="M533.5,317.9c0,0.2-0.2,0.4-0.4,0.4c0,0,0,0,0,0c-0.2,0-0.4-0.2-0.4-0.4v0c0-0.2,0.2-0.4,0.4-0.4c0,0,0,0,0,0
		C533.3,317.5,533.5,317.7,533.5,317.9L533.5,317.9z"/>
	<path class="st22" d="M535.6,317.9c0,0.2-0.1,0.4-0.3,0.4c-0.2,0-0.4-0.1-0.4-0.3c0,0,0-0.1,0-0.1c0-0.2,0.2-0.3,0.4-0.3
		C535.4,317.6,535.5,317.7,535.6,317.9z"/>
	<path class="st22" d="M537.6,317.9c0,0.2-0.2,0.4-0.4,0.4h0c-0.2,0-0.4-0.2-0.4-0.4c0,0,0,0,0,0c0-0.2,0.2-0.4,0.4-0.4l0,0
		C537.5,317.5,537.6,317.7,537.6,317.9C537.6,317.9,537.6,317.9,537.6,317.9z"/>
	<path class="st22" d="M539.7,317.9c0,0.2-0.2,0.4-0.4,0.4l0,0c-0.2,0-0.4-0.2-0.4-0.4c0,0,0,0,0,0c0-0.2,0.2-0.4,0.4-0.4l0,0
		C539.5,317.5,539.7,317.7,539.7,317.9C539.7,317.9,539.7,317.9,539.7,317.9z"/>
	<path class="st22" d="M541.7,317.9c0,0.2-0.2,0.4-0.4,0.4l0,0c-0.2,0-0.4-0.2-0.4-0.4c0,0,0,0,0,0c0-0.2,0.2-0.4,0.4-0.4l0,0
		C541.6,317.5,541.7,317.7,541.7,317.9C541.7,317.9,541.7,317.9,541.7,317.9z"/>
	<circle class="st22" cx="540.4" cy="319.3" r="0.4"/>
	<circle class="st22" cx="538.3" cy="319.3" r="0.4"/>
	<path class="st22" d="M536.6,319.3c0,0.2-0.2,0.4-0.4,0.4l0,0c-0.2,0-0.4-0.1-0.4-0.3c0-0.2,0.1-0.4,0.3-0.4c0,0,0.1,0,0.1,0
		C536.4,318.9,536.6,319.1,536.6,319.3C536.6,319.3,536.6,319.3,536.6,319.3z"/>
	<circle class="st22" cx="534.1" cy="319.3" r="0.4"/>
	<circle class="st22" cx="532" cy="319.3" r="0.4"/>
	<path class="st22" d="M530.3,319.3c0,0.2-0.2,0.4-0.4,0.4c-0.2,0-0.3-0.2-0.3-0.4c0-0.2,0.2-0.3,0.3-0.3
		C530.1,318.9,530.3,319.1,530.3,319.3z"/>
	<path class="st36" d="M500.9,227.5c0.5,0,1,0.1,1.5,0.3c1.4,0.4,2.6,1.2,3.6,2.3c1.5,1.7,2.6,3.8,3.2,6c0.9,2.9,1.5,5.8,2,8.7
		c1,7.7,1.2,15.5,0.6,23.3c-0.1,2.3-0.8,4.5-2,6.5c-0.7,1-1.5,1.8-2.5,2.5c-1.1,0.7-2.3,1-3.5,0.8c-1.3-0.1-2.5-0.7-3.4-1.6
		c-0.5-0.5-0.8-1-1-1.6c-0.2-0.6-0.2-1.3,0-1.9c0.3-1.3,1.3-2.4,2.5-2.8c0.6-0.2,1.4-0.2,2,0c0.6,0.2,1.2,0.7,1.6,1.2
		c0.8,1.1,1.1,2.4,0.9,3.7c-0.2,1.3-0.7,2.5-1.3,3.6c-3.7,6.5-11.9,8.9-18.5,5.4c-1.9-1-3.6-2.5-4.9-4.2c-1.3-1.6-2.3-3.4-3-5.3
		c-1.2-3.4-1.9-7-2-10.7c-0.2-3.3,0-6.3-0.3-8.9c-0.1-1.2-0.4-2.4-0.8-3.5c-0.4-1-0.9-1.8-1.5-2.6c-0.9-1.1-2-2-3.4-2.5
		c-0.5-0.1-1-0.3-1.4-0.3c0.5,0,1,0.1,1.5,0.3c1.4,0.5,2.6,1.3,3.5,2.4c0.7,0.8,1.2,1.7,1.6,2.7c0.4,1.2,0.8,2.4,0.9,3.6
		c0.4,2.6,0.2,5.6,0.4,8.9c0.1,3.6,0.8,7.2,2,10.5c0.7,1.9,1.7,3.6,2.9,5.2c1.3,1.7,2.9,3.1,4.8,4.1c6.4,3.4,14.4,1.1,17.9-5.2
		c0.6-1,1-2.2,1.2-3.4c0.2-1.2-0.1-2.4-0.8-3.4c-0.4-0.5-0.8-0.8-1.4-1c-0.5-0.2-1.1-0.2-1.7,0c-1.1,0.4-1.9,1.4-2.2,2.5
		c-0.3,1.1,0.1,2.3,0.9,3.1c0.8,0.8,1.9,1.3,3.1,1.4c1.1,0.1,2.3-0.2,3.2-0.8c1-0.6,1.8-1.4,2.4-2.3c1.2-1.9,1.8-4,2-6.2
		c0.6-7.7,0.5-15.5-0.5-23.2c-0.4-2.9-1.1-5.9-1.9-8.7c-0.6-2.2-1.6-4.2-3-5.9c-0.9-1.1-2.1-1.9-3.5-2.4
		C501.9,227.8,501.4,227.6,500.9,227.5z"/>
	<rect x="463.8" y="240.6" class="st36" width="30" height="5.7"/>
	<rect x="237.9" y="299.8" class="st18" width="39.2" height="84.3"/>
	<path class="st43" d="M273.7,375.2c0,0,0-0.1,0-0.4s0-0.6,0-1c0-0.9,0-2.3,0-4c0-3.5,0-8.6-0.1-15.1c0-12.9-0.1-31-0.1-52l0.2,0.2
		h-32.8l0,0l0.2-0.2c0,28.2,0,53.7-0.1,72.5l-0.2-0.2l23.9,0.1l6.5,0h1.7C273.5,375.1,273.7,375.1,273.7,375.2l-0.5-0.1h-1.7H265
		l-24,0.1h-0.2v-0.2c0-18.8,0-44.3-0.1-72.5v-0.2h33.2v0.2c0,21.1-0.1,39.3-0.1,52.2c0,6.4,0,11.5-0.1,15c0,1.7,0,3.1,0,4
		c0,0.4,0,0.8,0,1S273.7,375.2,273.7,375.2z"/>
	<path class="st43" d="M271.6,308.8c0,0,0-0.3,0-0.9s0-1.4-0.1-2.4l0.1,0.1c-5.1,0.1-15.9,0.1-28.5,0.1l0,0l0.2-0.2l0,0v1.7
		c0,0.6,0,1.1,0,1.6l-0.2-0.2c8,0,15.1,0.1,20.2,0.1l6.1,0.1h1.7C271.3,308.7,271.5,308.7,271.6,308.8c-0.1-0.1-0.3-0.1-0.5-0.1
		h-1.6l-6,0.1c-5.1,0.1-12.3,0.1-20.3,0.1H243v-3.6l0,0l0.2-0.2l0,0c12.6,0,23.4,0.1,28.5,0.1h0v0.1c0,1.1,0,1.9-0.1,2.5
		C271.7,308.2,271.7,308.5,271.6,308.8z"/>
	<path class="st43" d="M246,311.2c0,0.1-0.6,0.2-1.3,0.2c-0.7,0-1.3-0.1-1.3-0.2s0.6-0.2,1.3-0.2C245.4,311,246,311.1,246,311.2z"/>
	<path class="st43" d="M270.9,315.6c0,0.1-6.1,0.2-13.6,0.2s-13.6-0.1-13.6-0.2c0-0.1,6.1-0.2,13.6-0.2S270.9,315.4,270.9,315.6z"/>
	<path class="st43" d="M271,320.8c0,0.1-6,0.2-13.3,0.2c-7.3,0-13.3-0.1-13.3-0.2s6-0.2,13.3-0.2C265,320.6,271,320.7,271,320.8z"/>
	<circle class="st36" cx="257.3" cy="333.1" r="2.2"/>
	<path class="st43" d="M251.2,333c-0.9,0.2-1.9,0.3-2.9,0.2c-1,0.1-1.9,0-2.8-0.2c0.9-0.2,1.9-0.3,2.9-0.2
		C249.4,332.7,250.3,332.8,251.2,333z"/>
	<path class="st43" d="M268.7,332.4c-0.9,0.2-1.8,0.3-2.7,0.2c-0.9,0.1-1.8,0-2.7-0.2c0.9-0.2,1.8-0.3,2.7-0.2
		C266.9,332.1,267.9,332.2,268.7,332.4z"/>
	<path class="st22" d="M239.2,342.1c-0.5,0-1-0.1-1.5-0.3c-1.4-0.4-2.7-1-3.9-1.8c-1.9-1.3-3.5-2.9-4.7-4.9
		c-1.6-2.6-2.7-5.4-3.4-8.3c-0.9-3.5-1.3-7.2-1-10.8c0.2-4.2,1.7-8.3,4.1-11.7c1.3-1.8,3-3.4,4.9-4.7c1-0.6,2.1-1.2,3.2-1.6
		c1.1-0.4,2.3-0.7,3.5-0.8c2.4-0.3,4.8-0.3,7.2-0.4c2.5-0.1,4.9-0.6,7.2-1.6c2.2-1,3.9-3,4.4-5.4c0.9-4.1-1.6-8.2-5.7-9.1
		c-0.6-0.1-1.2-0.2-1.9-0.2c-1.1,0.1-2.1,0.5-3,1.1c-0.8,0.6-1.3,1.7-1.3,2.7c0.2,2.1,1.9,3.7,4,3.9c2,0,3.9-0.8,5.2-2.3
		c1.2-1.4,2.1-3.1,2.5-4.9c0.4-1.7,0.8-3.4,1-5.1c0.6-5.2,0.8-10.4,0.5-15.6c-0.1-1.8-0.2-3.3-0.2-4.3c0-0.5,0-0.8-0.1-1.1
		c0-0.1,0-0.3,0-0.4c0,0.1,0,0.3,0.1,0.4c0,0.3,0.1,0.6,0.1,1.1c0.1,1,0.2,2.4,0.3,4.3c0.4,5.2,0.3,10.5-0.3,15.7
		c-0.2,1.7-0.6,3.4-1,5.1c-0.5,1.9-1.3,3.6-2.6,5.1c-1.4,1.6-3.4,2.5-5.5,2.5c-2.3-0.2-4.2-2-4.4-4.3c-0.1-1.2,0.5-2.3,1.4-3.1
		c0.9-0.7,2.1-1.2,3.3-1.2c4.5,0,8.2,3.6,8.2,8.1c0,1.9-0.6,3.7-1.8,5.2c-0.8,1-1.9,1.8-3,2.4c-2.3,1.1-4.8,1.6-7.3,1.7
		c-2.5,0.1-4.9,0.1-7.2,0.4c-1.2,0.2-2.3,0.4-3.4,0.8c-1.1,0.4-2.1,0.9-3.1,1.5c-1.9,1.2-3.5,2.7-4.8,4.5c-2.4,3.4-3.8,7.3-4.1,11.5
		c-0.2,3.6,0.1,7.2,1,10.7c0.7,2.9,1.8,5.7,3.3,8.2c1.2,1.9,2.7,3.6,4.5,4.9c1.2,0.8,2.4,1.4,3.8,1.9c0.5,0.1,0.8,0.2,1.1,0.3
		C238.9,342,239.1,342,239.2,342.1z"/>
	<rect x="225.9" y="169" class="st18" width="92.7" height="63.7"/>
	<rect x="265.1" y="224" class="st18" width="12.6" height="24"/>
</g>
<g id="freepik--Desk--inject-35">
	<polygon class="st19" points="235.1,247.1 235.1,255.7 282.9,255.7 282.9,384.5 287.3,384.5 287.3,255.7 487.2,256.7 487.2,384.5 
		491.5,384.5 491.5,256.5 522.4,256.7 522.4,246.3 	"/>
	<polygon class="st19" points="265.7,254 284.6,267.6 282.9,269.2 263.9,254.9 	"/>
	<polygon class="st19" points="509.3,255.3 487.4,270.9 489,272.5 511.1,256.1 	"/>
	<rect x="304.7" y="243.9" class="st22" width="49.5" height="3.6"/>
</g>
</svg>
